<svg width="1920" height="1080" viewBox="0 0 1920 1080" fill="none" xmlns="http://www.w3.org/2000/svg">
<g clip-path="url(#clip0_1_2)">
<path d="M1920 0H0V1080H1920V0Z" fill="white"/>
<path d="M1394.28 166.9H516.73V451.24H1394.28V166.9Z" fill="white" stroke="#F6821F" stroke-width="2.23"/>
<path d="M1158.59 146.37H752.42V194.37H1158.59V146.37Z" fill="white"/>
<path d="M857.57 179.08L858.14 177.09C858.82 174.73 858.57 172.53 857.42 170.94C856.36 169.47 854.6 168.59 852.46 168.49L811.95 167.98C811.67 167.97 811.45 167.84 811.31 167.65C811.17 167.44 811.14 167.18 811.23 166.91C811.37 166.51 811.76 166.22 812.17 166.19L853.07 165.68C857.92 165.46 863.17 161.53 865.02 156.72L867.35 150.62C867.42 150.45 867.45 150.27 867.45 150.11C867.45 150.01 867.44 149.92 867.42 149.82C864.74 137.9 854.11 128.99 841.4 128.99C829.7 128.99 819.75 136.55 816.18 147.05C813.87 145.33 810.93 144.41 807.77 144.72C802.16 145.28 797.64 149.81 797.07 155.42C796.92 156.88 797.04 158.28 797.38 159.6C788.21 159.89 780.85 167.41 780.85 176.65C780.85 177.48 780.92 178.3 781.03 179.11C781.09 179.5 781.42 179.79 781.81 179.79H856.61C856.61 179.79 856.62 179.8 856.64 179.8C857.07 179.79 857.45 179.51 857.57 179.09V179.08Z" fill="#F78100"/>
<path d="M871.06 151.05C870.68 151.05 870.31 151.06 869.93 151.08C869.87 151.08 869.8 151.09 869.75 151.12C869.56 151.19 869.4 151.34 869.35 151.55L867.77 157.04C867.09 159.4 867.34 161.58 868.49 163.19C869.55 164.68 871.31 165.54 873.45 165.64L882.09 166.15C882.34 166.16 882.56 166.29 882.7 166.48C882.84 166.69 882.88 166.95 882.8 167.22C882.66 167.62 882.27 167.91 881.86 167.94L872.88 168.45C868 168.67 862.75 172.6 860.92 177.41L860.27 179.11C860.16 179.42 860.37 179.75 860.7 179.76H891.61C891.99 179.76 892.3 179.52 892.4 179.16C892.94 177.26 893.22 175.24 893.22 173.16C893.21 160.95 883.3 151.04 871.06 151.04V151.05Z" fill="#FBAC42"/>
<path d="M927.28 160.97H932.39V174.95H941.32V179.42H927.28V160.97Z" fill="black"/>
<path d="M946.63 170.25V170.19C946.63 164.9 950.9 160.59 956.59 160.59C962.28 160.59 966.5 164.84 966.5 170.14V170.2C966.5 175.49 962.23 179.8 956.54 179.8C950.85 179.8 946.63 175.55 946.63 170.25ZM961.29 170.25V170.19C961.29 167.52 959.37 165.2 956.55 165.2C953.73 165.2 951.88 167.46 951.88 170.13V170.19C951.88 172.86 953.8 175.18 956.6 175.18C959.4 175.18 961.28 172.92 961.28 170.25" fill="black"/>
<path d="M972.76 171.34V160.98H977.96V171.23C977.96 173.9 979.31 175.16 981.36 175.16C983.41 175.16 984.76 173.95 984.76 171.37V160.98H989.96V171.21C989.96 177.17 986.56 179.78 981.32 179.78C976.05 179.78 972.76 177.11 972.76 171.35" fill="black"/>
<path d="M997.77 160.97H1004.88C1011.47 160.97 1015.3 164.76 1015.3 170.08V170.14C1015.3 175.46 1011.42 179.42 1004.78 179.42H997.76V160.97H997.77ZM1004.98 174.89C1008.04 174.89 1010.07 173.21 1010.07 170.22V170.16C1010.07 167.21 1008.04 165.49 1004.98 165.49H1002.9V174.88H1004.98V174.89Z" fill="black"/>
<path d="M1022.74 160.97H1037.51V165.46H1027.85V168.59H1036.59V172.84H1027.85V179.42H1022.74V160.97Z" fill="black"/>
<path d="M1044.62 160.97H1049.74V174.95H1058.68V179.42H1044.62V160.97Z" fill="black"/>
<path d="M1072.05 160.83H1076.98L1084.84 179.42H1079.35L1078 176.13H1070.89L1069.57 179.42H1064.19L1072.04 160.83H1072.05ZM1076.52 172.16L1074.46 166.91L1072.38 172.16H1076.52Z" fill="black"/>
<path d="M1091.42 160.97H1100.15C1102.97 160.97 1104.92 161.71 1106.17 162.97C1107.25 164.03 1107.81 165.44 1107.81 167.26V167.32C1107.81 170.14 1106.31 172.02 1104.02 172.99L1108.42 179.42H1102.5L1098.79 173.83H1096.55V179.42H1091.44V160.97H1091.43H1091.42ZM1099.91 169.82C1101.65 169.82 1102.65 168.97 1102.65 167.64V167.58C1102.65 166.14 1101.59 165.4 1099.89 165.4H1096.54V169.82H1099.92H1099.91Z" fill="black"/>
<path d="M916.08 172.42C915.36 174.03 913.86 175.18 911.86 175.18C909.07 175.18 907.14 172.86 907.14 170.19V170.13C907.14 167.46 909.02 165.2 911.81 165.2C913.92 165.2 915.52 166.49 916.2 168.26H921.59C920.73 163.87 916.87 160.59 911.86 160.59C906.16 160.59 901.9 164.88 901.9 170.19V170.25C901.9 175.54 906.12 179.8 911.81 179.8C916.69 179.8 920.49 176.65 921.49 172.42H916.09H916.08Z" fill="black"/>
<path d="M1115.16 160.96H1130.03V165.32H1120.23V168.11H1129.11V172.16H1120.23V175.09H1130.17V179.45H1115.16V160.96Z" fill="black"/>
<path fill-rule="evenodd" clip-rule="evenodd" d="M1365.48 213.85V429.77H545.53V213.85H1365.48Z" fill="#FFF1DF"/>
<path d="M803.65 251.96H575.93V399.8H803.65V251.96Z" fill="white" stroke="#FF6633" stroke-width="1.95"/>
<path d="M1073.6 251.96H845.88V399.8H1073.6V251.96Z" fill="white" stroke="#FF6633" stroke-width="1.95"/>
<path d="M1336.13 251.96H1108.41V399.8H1336.13V251.96Z" fill="white" stroke="#FF6633" stroke-width="1.95"/>
<text fill="black" style="white-space: pre" xml:space="preserve" font-family="Inter" font-size="32.05" font-weight="600" letter-spacing="0em"><tspan x="648.17" y="371.585">Logs </tspan></text>
<text fill="black" style="white-space: pre" xml:space="preserve" font-family="Inter" font-size="32.05" font-weight="600" letter-spacing="0em"><tspan x="902.81" y="371.585">Access</tspan></text>
<text fill="black" style="white-space: pre" xml:space="preserve" font-family="Inter" font-size="20" letter-spacing="0em"><tspan x="1602" y="793.273">Logs [via Logpush]</tspan></text>
<text fill="black" style="white-space: pre" xml:space="preserve" font-family="Inter" font-size="20" letter-spacing="0em"><tspan x="1602" y="846.273">Automation [via API]</tspan></text>
<text fill="black" style="white-space: pre" xml:space="preserve" font-family="Inter" font-size="20" letter-spacing="0em"><tspan x="1602" y="900.273">Device posture &#10;</tspan><tspan x="1602" y="924.273">[service-to-service API]</tspan></text>
<text fill="black" style="white-space: pre" xml:space="preserve" font-family="Inter" font-size="32.05" font-weight="600" letter-spacing="0em"><tspan x="1195.95" y="371.585">API</tspan></text>
<path d="M693.37 281.26L690.58 284.11L708.45 301.63H663.36V305.63H708.45L690.58 323.15L693.37 326.01L716.21 303.63L693.37 281.26Z" fill="#FF6633"/>
<mask id="mask0_1_2" style="mask-type:luminance" maskUnits="userSpaceOnUse" x="927" y="271" width="65" height="65">
<path d="M991.74 271.63H927.74V335.63H991.74V271.63Z" fill="white"/>
</mask>
<g mask="url(#mask0_1_2)">
<path d="M964.54 282.42C960.07 282.42 955.7 283.83 952.08 286.46C948.46 289.09 945.76 292.8 944.38 297.05L944.24 297.49H948.14L948.23 297.28C949.67 293.62 952.3 290.56 955.7 288.58C959.1 286.6 963.06 285.82 966.95 286.37C970.84 286.92 974.44 288.76 977.16 291.6C979.88 294.44 981.56 298.12 981.93 302.03C982.3 305.94 981.35 309.87 979.22 313.17C977.09 316.47 973.91 318.97 970.19 320.24C966.47 321.52 962.43 321.5 958.72 320.2C955.01 318.9 951.85 316.39 949.74 313.07C949.64 312.92 949.55 312.77 949.46 312.61L949.26 312.26H945.17L945.41 312.75C945.78 313.55 946.2 314.31 946.68 315.05C948.66 318.15 951.42 320.68 954.68 322.4C957.94 324.11 961.59 324.95 965.27 324.82C968.95 324.69 972.53 323.61 975.67 321.68C978.81 319.75 981.38 317.03 983.15 313.8C984.92 310.57 985.81 306.93 985.75 303.25C985.69 299.57 984.67 295.97 982.79 292.8C980.91 289.63 978.24 287.01 975.04 285.19C971.84 283.37 968.22 282.41 964.54 282.41V282.42Z" fill="#FF6633"/>
<path d="M965.53 300.72L958.1 293.29L955.63 295.76L959.95 300.09H927.74L929.82 303.58H964.34L965.53 300.72Z" fill="#FF6633"/>
<path d="M965.48 316.48L963.01 314.01L967.33 309.68H933.44L931.37 306.18H971.72L972.91 309.05L965.48 316.48Z" fill="#FF6633"/>
</g>
<path d="M1244.27 285.42H1200.27L1198.27 287.42V331.42L1200.27 333.42H1244.27L1246.27 331.42V287.42L1244.27 285.42ZM1242.27 329.42H1202.27V289.42H1242.27V329.42Z" fill="#FF6633"/>
<path d="M1208.89 313.92H1214.44L1215.58 317.42H1219.06L1213.76 302.05H1209.58L1204.27 317.42H1207.75L1208.89 313.92ZM1211.61 305.57H1211.73L1213.62 311.39H1209.72L1211.61 305.57Z" fill="#FF6633"/>
<path d="M1223.95 312.44H1226.68C1227.72 312.47 1228.76 312.25 1229.7 311.79C1230.5 311.38 1231.17 310.75 1231.61 309.97C1232.06 309.14 1232.29 308.21 1232.27 307.27C1232.29 306.33 1232.07 305.4 1231.62 304.56C1231.19 303.78 1230.53 303.14 1229.74 302.72C1228.82 302.25 1227.79 302.02 1226.76 302.06H1220.7V317.42H1223.95V312.44ZM1223.95 304.71H1226.14C1226.68 304.69 1227.21 304.8 1227.7 305.03C1228.09 305.23 1228.41 305.54 1228.62 305.92C1228.82 306.34 1228.92 306.8 1228.92 307.26C1228.92 307.72 1228.82 308.18 1228.62 308.6C1228.42 308.99 1228.1 309.31 1227.7 309.51C1227.22 309.74 1226.69 309.86 1226.15 309.84H1223.95V304.71Z" fill="#FF6633"/>
<path d="M1238.27 302.05H1235.02V317.42H1238.27V302.05Z" fill="#FF6633"/>
<path d="M333.01 379.29H73.38V743.16H333.01V379.29Z" fill="#F2F7FF" stroke="#3E74FF" stroke-width="2.06"/>
<path d="M203.19 464.49C203.6 464.49 203.93 464.16 203.93 463.75C203.93 463.34 203.6 463.01 203.19 463.01C202.78 463.01 202.45 463.34 202.45 463.75C202.45 464.16 202.78 464.49 203.19 464.49Z" fill="#3E74FF"/>
<path fill-rule="evenodd" clip-rule="evenodd" d="M264.36 465.97H142.02C138.78 465.97 135.88 468.7 135.88 472.11V552.47H270.5V472.11C270.5 468.7 267.6 465.97 264.36 465.97Z" fill="#E0ECFF" stroke="#3E74FF" stroke-width="1.5" stroke-miterlimit="10"/>
<path d="M275.96 558.62H130.59C123.08 558.62 117.96 557.43 117.96 556.4V552.99C117.96 552.65 118.3 552.31 118.64 552.31H287.73C288.07 552.31 288.41 552.65 288.41 552.99V556.4C288.58 557.42 284.66 558.62 275.95 558.62H275.96Z" fill="white"/>
<path d="M275.96 558.62H130.59C123.08 558.62 117.96 557.43 117.96 556.4V552.99C117.96 552.65 118.3 552.31 118.64 552.31H287.73C288.07 552.31 288.41 552.65 288.41 552.99V556.4C288.58 557.42 284.66 558.62 275.95 558.62H275.96Z" stroke="#3E74FF" stroke-width="1.5" stroke-miterlimit="10"/>
<path d="M288.33 552.99C288.33 552.65 287.99 552.31 287.65 552.31H118.56C118.22 552.31 117.88 552.65 117.88 552.99V556.23H288.5V552.99H288.33Z" fill="#E0ECFF"/>
<path d="M275.96 558.62H130.59C123.08 558.62 117.96 557.43 117.96 556.4V552.99C117.96 552.65 118.3 552.31 118.64 552.31H287.73C288.07 552.31 288.41 552.65 288.41 552.99V556.4C288.58 557.42 284.66 558.62 275.95 558.62H275.96Z" stroke="#3E74FF" stroke-width="1.5" stroke-miterlimit="10"/>
<path d="M264.95 475.53H141.42V547.53H264.95V475.53Z" fill="white"/>
<path fill-rule="evenodd" clip-rule="evenodd" d="M221.7 552.65V553.33C221.7 553.84 220.68 554.01 219.82 554.01H186.55C185.7 554.01 184.67 553.84 184.67 553.33V552.65" fill="#3E74FF"/>
<path d="M203.19 542.77C220.44 542.77 234.43 528.78 234.43 511.53C234.43 494.28 220.44 480.29 203.19 480.29C185.94 480.29 171.95 494.28 171.95 511.53C171.95 528.78 185.94 542.77 203.19 542.77Z" fill="white" stroke="#3E74FF" stroke-width="1.5" stroke-miterlimit="10"/>
<path d="M202.02 499.81C202.57 498.97 203.8 498.97 204.35 499.81L204.79 500.49C205.22 501.15 206.12 501.32 206.77 500.86L207.42 500.39C208.24 499.81 209.38 500.25 209.59 501.23L209.76 502.03C209.93 502.8 210.7 503.28 211.47 503.09L212.25 502.89C213.22 502.64 214.13 503.47 213.97 504.46L213.84 505.28C213.72 506.06 214.27 506.79 215.05 506.88L215.86 506.98C216.85 507.1 217.4 508.2 216.9 509.06L216.48 509.78C216.08 510.46 216.33 511.34 217.03 511.71L217.76 512.1C218.64 512.57 218.75 513.79 217.97 514.41L217.32 514.93C216.71 515.42 216.62 516.33 217.14 516.92L217.68 517.55C218.33 518.31 218 519.49 217.04 519.79L216.25 520.04C215.5 520.28 215.09 521.09 215.36 521.83L215.64 522.61C215.98 523.55 215.24 524.53 214.24 524.47L213.43 524.42C212.64 524.37 211.97 524.98 211.95 525.77L211.93 526.59C211.9 527.59 210.86 528.24 209.95 527.81L209.22 527.47C208.5 527.14 207.65 527.47 207.35 528.2L207.04 528.95C206.65 529.88 205.44 530.1 204.75 529.38L204.19 528.8C203.64 528.23 202.73 528.23 202.18 528.8L201.62 529.38C200.93 530.1 199.72 529.88 199.33 528.95L199.02 528.2C198.72 527.47 197.86 527.14 197.15 527.47L196.42 527.81C195.51 528.23 194.47 527.59 194.44 526.59L194.42 525.77C194.4 524.98 193.72 524.37 192.94 524.42L192.13 524.47C191.13 524.54 190.39 523.56 190.73 522.61L191.01 521.83C191.27 521.09 190.87 520.27 190.12 520.04L189.33 519.79C188.38 519.49 188.04 518.31 188.69 517.55L189.23 516.92C189.74 516.32 189.66 515.42 189.05 514.93L188.4 514.41C187.62 513.78 187.73 512.57 188.61 512.1L189.34 511.71C190.04 511.34 190.28 510.46 189.89 509.78L189.47 509.06C188.97 508.19 189.52 507.1 190.51 506.98L191.32 506.88C192.1 506.79 192.65 506.06 192.53 505.28L192.4 504.46C192.24 503.47 193.15 502.64 194.12 502.89L194.9 503.09C195.67 503.29 196.44 502.81 196.61 502.03L196.78 501.23C196.99 500.25 198.14 499.8 198.95 500.39L199.6 500.86C200.24 501.32 201.14 501.15 201.58 500.49L202.02 499.81Z" fill="#0F006B"/>
<path d="M193.08 527.8C194.71 526.91 196.21 525.81 197.56 524.54V516.3L208.42 516.43V524.18C208.92 525.14 210.79 526.33 213.29 527.73C213.29 527.73 208.64 534.66 202.81 534.66C196.98 534.66 193.08 527.8 193.08 527.8Z" fill="#E0EDFF" stroke="#0F006B" stroke-width="1.5" stroke-miterlimit="10"/>
<path d="M203.28 542.77C211.03 542.78 218.51 539.9 224.25 534.68C221.05 531.93 217.5 529.61 213.69 527.78C213.69 527.78 208.98 534.66 203.15 534.66C197.32 534.66 193.39 527.87 193.39 527.87C189.81 529.89 185.41 531.79 182.12 534.5C187.88 539.82 195.44 542.77 203.28 542.76V542.77Z" fill="#3E74FF" stroke="#0F006B" stroke-width="1.5" stroke-miterlimit="10"/>
<path d="M202.23 505.87C202.29 505.64 202.4 505.42 202.54 505.23C202.68 505.04 202.87 504.89 203.08 504.77C203.29 504.66 203.52 504.59 203.76 504.57C204 504.55 204.24 504.58 204.46 504.66C205.82 505.07 205.05 510 201.26 509.82C201.65 508.52 201.97 507.2 202.22 505.86L202.23 505.87Z" fill="#E0EDFF" stroke="#0F006B" stroke-width="1.5" stroke-miterlimit="10"/>
<path d="M204.18 505.88C204.12 505.64 204 505.42 203.85 505.23C203.7 505.04 203.5 504.88 203.29 504.77C203.07 504.66 202.83 504.59 202.59 504.57C202.35 504.55 202.1 504.59 201.87 504.67C200.69 505.15 201.28 510.01 205.07 509.83C204.69 508.53 204.39 507.21 204.19 505.87L204.18 505.88Z" fill="#E0EDFF" stroke="#0F006B" stroke-width="1.5" stroke-miterlimit="10"/>
<path d="M213.99 501.35C213.99 504.17 212.96 509.9 211.15 513.36C209.81 515.93 206.34 518.79 203.2 518.79C200.06 518.79 196.95 515.93 195.25 513.36C193.09 510.1 192.41 504.16 192.41 501.35C192.41 498.54 193.55 495.74 195.57 493.72C197.59 491.7 200.34 490.56 203.2 490.56C206.06 490.56 208.81 491.7 210.83 493.72C212.85 495.74 213.99 498.49 213.99 501.35Z" fill="#E0EDFF" stroke="#0F006B" stroke-width="1.5" stroke-miterlimit="10"/>
<path d="M213.43 504.89C212.92 500.6 208.76 494.89 204.12 494.89L203.35 491.33L204.79 494.93C204.79 502.71 193.26 500.63 192.78 505.77L192.6 505.59C192.36 504.09 192.23 502.58 192.22 501.06C192.22 495.1 197.24 490.45 203.2 490.45C206.08 490.45 208.85 491.57 210.91 493.59C212.97 495.61 214.14 498.36 214.18 501.24C214.12 502.72 213.92 504.19 213.57 505.64L213.44 504.89H213.43Z" fill="#0F006B" stroke="#0F006B" stroke-width="1.5" stroke-linejoin="round"/>
<path d="M203.19 542.77C220.44 542.77 234.43 528.78 234.43 511.53C234.43 494.28 220.44 480.29 203.19 480.29C185.94 480.29 171.95 494.28 171.95 511.53C171.95 528.78 185.94 542.77 203.19 542.77Z" stroke="#3E74FF" stroke-width="1.5" stroke-miterlimit="10"/>
<path d="M1861.71 189.13H1458.2V728.58H1861.71V189.13Z" fill="#F2F7FF" stroke="#3E74FF" stroke-width="3.2"/>
<path d="M1394.28 649.59H516.73V1017H1394.28V649.59Z" fill="white" stroke="#FC0000" stroke-width="2.54"/>
<path d="M784.11 1038.61H1127.24V990.61H784.11V1038.61Z" fill="white"/>
<path opacity="0.1" fill-rule="evenodd" clip-rule="evenodd" d="M1365.65 674.41V971.56H545.7V674.41H1365.65Z" fill="#FC0000"/>
<path d="M803.34 712.52H575.62V937.32H803.34V712.52Z" fill="white" stroke="#FC0000" stroke-width="2.78"/>
<path d="M1069.53 712.52H841.81V937.32H1069.53V712.52Z" fill="white" stroke="#FC0000" stroke-width="2.78"/>
<path d="M1335.72 712.52H1108V937.32H1335.72V712.52Z" fill="white" stroke="#FC0000" stroke-width="2.78"/>
<path fill-rule="evenodd" clip-rule="evenodd" d="M862.84 1015.8V1016.3C861.18 1018.29 859.03 1019.62 856.71 1020.28C854.22 1018.29 851.74 1016.47 848.92 1014.64C848.09 1014.14 847.43 1013.65 846.43 1012.98C844.94 1011.99 843.11 1010.82 841.29 1009.5V1008.67C841.29 1001.87 846.6 996.9 853.56 996.9C857.21 996.9 860.52 998.56 862.84 1001.21V1001.71L858.7 1005.19H858.2C857.04 1003.86 855.22 1003.03 853.39 1003.03C851.9 1003.03 850.57 1003.53 849.58 1004.69C848.59 1005.68 848.09 1007.18 848.09 1008.67C848.09 1010.16 848.59 1011.49 849.58 1012.65C850.57 1013.64 851.9 1014.31 853.39 1014.31C855.21 1014.31 856.87 1013.48 858.2 1012.15H858.7L862.84 1015.8ZM850.4 1020.27C847.75 1019.77 845.43 1018.28 843.77 1016.13C843.94 1016.13 844.1 1016.3 844.27 1016.46C844.6 1016.63 844.77 1016.79 845.1 1016.96C846.76 1018.12 848.58 1019.12 850.41 1020.11V1020.28L850.4 1020.27Z" fill="black"/>
<path fill-rule="evenodd" clip-rule="evenodd" d="M886.71 1014.3L887.7 1018.78V1019.28C886.71 1019.94 885.71 1020.27 884.55 1020.27C881.73 1020.27 880.24 1019.61 878.25 1016.62C877.26 1015.13 875.43 1011.98 873.77 1011.98H873.11V1019.94H866.15V997.23H876.76C882.89 997.23 886.21 1000.21 886.21 1004.86C886.21 1007.68 884.55 1010.17 881.9 1011.16C882.56 1011.66 883.23 1012.32 883.72 1012.98C884.22 1013.64 884.55 1014.47 885.38 1014.47C885.71 1014.47 886.04 1014.47 886.37 1014.3H886.7H886.71ZM878.92 1005.02C878.92 1005.68 878.75 1006.18 878.26 1006.68C877.76 1007.18 877.1 1007.34 876.44 1007.34H873.12V1002.7H876.44C877.1 1002.7 877.77 1002.87 878.26 1003.36C878.76 1003.86 878.92 1004.52 878.92 1005.02Z" fill="black"/>
<path fill-rule="evenodd" clip-rule="evenodd" d="M900.14 997.06C907.27 997.06 912.57 1002.03 912.57 1008.66C912.57 1015.29 907.26 1020.26 900.14 1020.26C893.02 1020.26 887.71 1015.29 887.71 1008.66C887.71 1002.03 893.02 997.06 900.14 997.06ZM902.96 1013.64C904.62 1012.65 905.78 1010.82 905.61 1008.67C905.61 1006.68 904.62 1004.86 902.96 1003.7C901.3 1002.71 899.15 1002.71 897.32 1003.7C895.66 1004.69 894.5 1006.52 894.67 1008.67C894.67 1010.66 895.66 1012.48 897.32 1013.64C898.98 1014.63 901.13 1014.63 902.96 1013.64Z" fill="black"/>
<path d="M945.4 997.06H939.1L935.29 1009.99L931.15 997.06H927.17L923.03 1009.83L919.22 997.06H912.92L912.59 997.56L920.71 1020.27H924.69L929.17 1007.67L933.81 1020.27H937.79L945.91 997.56L945.58 997.06H945.41H945.4Z" fill="black"/>
<path fill-rule="evenodd" clip-rule="evenodd" d="M959.16 997.06C966.29 997.06 970.6 1001.7 970.6 1008.66C970.6 1015.62 966.29 1020.26 959.16 1020.26H949.05V997.05H959.16V997.06ZM958.82 1014.64C961.64 1014.64 963.79 1012.48 963.79 1008.67C963.79 1004.86 961.63 1002.7 958.82 1002.7H955.5V1014.47H958.82V1014.64Z" fill="black"/>
<path d="M1008.23 1002.86H1015.36V997.22H993.81V1002.86H1000.94V1020.43H1008.07V1002.86H1008.24H1008.23Z" fill="black"/>
<path fill-rule="evenodd" clip-rule="evenodd" d="M1027.29 997.06C1033.26 997.06 1036.41 1000.04 1036.41 1004.85C1036.41 1007.83 1034.75 1009.99 1032.27 1011.15L1036.91 1019.77L1036.58 1020.27H1029.78L1025.47 1012.15H1023.81V1020.27H1017.01V997.06H1027.29ZM1029.45 1005.19C1029.45 1005.85 1029.28 1006.52 1028.79 1006.85C1028.29 1007.35 1027.63 1007.51 1027.13 1007.51H1023.98V1002.87H1027.13C1027.79 1002.87 1028.46 1003.04 1028.79 1003.53C1029.29 1004.03 1029.45 1004.69 1029.45 1005.35V1005.18V1005.19Z" fill="black"/>
<path d="M1040.22 997.06H1046.85V1020.27H1040.22V997.06Z" fill="black"/>
<path d="M1063.27 1007.51L1071.06 997.73L1070.73 997.23H1063.44L1056.97 1005.52V997.23H1050.01V1020.44H1056.97V1013.31L1058.3 1011.82L1064.1 1020.44H1071.39L1071.72 1019.94L1063.27 1007.67V1007.5V1007.51Z" fill="black"/>
<path d="M1091.45 1002.86V997.22H1075.04V1020.43H1091.62V1014.79H1081.67V1011.64H1089.13V1006.33H1081.67V1003.18H1091.62L1091.45 1002.85V1002.86Z" fill="black"/>
<path d="M982.53 1020.27C987.67 1020.27 992.15 1017.78 992.15 1013.14C992.15 1008.5 987.67 1006.84 983.7 1005.68C982.21 1005.18 980.55 1004.69 980.55 1003.69C980.55 1002.69 981.38 1002.36 982.87 1002.36C985.19 1002.36 987.18 1003.69 988.18 1004.68H988.68L992 1000.87V1000.37C990.18 998.55 986.69 997.05 982.72 997.05C978.75 997.05 973.44 999.87 973.44 1004.01C973.44 1008.15 977.58 1010.31 981.23 1011.3C983.55 1011.96 985.04 1011.96 985.04 1013.29C985.04 1014.62 983.88 1014.62 982.22 1014.62C980.56 1014.62 977.41 1013.29 976.09 1012.13H975.59L972.27 1016.11V1016.61C974.43 1018.93 978.07 1020.42 982.55 1020.42" fill="black"/>
<path d="M866.15 1041.82C864.49 1038.17 861.18 1033.37 848.25 1026.57C842.28 1023.25 832.17 1018.28 823.05 1008.67C823.88 1012.15 828.19 1019.78 846.43 1029.23C851.4 1031.88 860.02 1034.54 866.16 1041.83" fill="black"/>
<path d="M864.49 1035.19C863 1030.71 860.35 1025.08 847.41 1016.79C841.11 1012.65 831.83 1007.34 819.72 993.75C820.55 997.4 824.36 1006.85 843.76 1019.11C850.06 1023.59 858.35 1026.24 864.48 1035.19" fill="black"/>
<path d="M686.72 412.52V696.2" stroke="#F26733" stroke-width="3" stroke-miterlimit="10"/>
<path d="M674.45 686.26L676.65 684.21L686.72 695.05L696.79 684.21L698.99 686.26L686.72 699.45L674.45 686.26Z" fill="#F26733"/>
<path d="M955.51 699.45V415.77" stroke="#239B7F" stroke-width="3" stroke-miterlimit="10"/>
<path d="M967.78 425.71L965.58 427.76L955.51 416.92L945.44 427.76L943.24 425.71L955.51 412.52L967.78 425.71Z" fill="#239B7F"/>
<path d="M1221.18 699.45V415.77" stroke="#004DC8" stroke-width="3" stroke-miterlimit="10"/>
<path d="M1233.45 425.71L1231.26 427.76L1221.19 416.92L1211.12 427.76L1208.92 425.71L1221.19 412.52L1233.45 425.71Z" fill="#004DC8"/>
<path d="M516.73 313.56H200.5V379.4" stroke="#9E9E9E" stroke-width="3" stroke-miterlimit="10"/>
<path d="M516.73 790.44H203.82V743.15" stroke="#9E9E9E" stroke-width="3" stroke-miterlimit="10"/>
<path d="M1458.2 319.32H1394.28" stroke="#9E9E9E" stroke-width="3" stroke-miterlimit="10"/>
<text fill="black" style="white-space: pre" xml:space="preserve" font-family="Inter" font-size="12" font-weight="500" letter-spacing="0em"><tspan x="1712.84" y="1049.34"></tspan></text>
<text fill="black" style="white-space: pre" xml:space="preserve" font-family="Inter" font-size="32.05" font-weight="600" letter-spacing="0em"><tspan x="684.72" y="73.5345">High level architecture: Integration</tspan></text>
<text fill="black" style="white-space: pre" xml:space="preserve" font-family="Inter" font-size="30" font-weight="600" letter-spacing="0em"><tspan x="99.76" y="636.949">[WARP agent]</tspan></text>
<text fill="black" style="white-space: pre" xml:space="preserve" font-family="Inter" font-size="30" font-weight="600" letter-spacing="0em"><tspan x="99.76" y="672.949">[Falcon agent]</tspan></text>
<text fill="black" style="white-space: pre" xml:space="preserve" font-family="Inter" font-size="30" font-weight="600" letter-spacing="0em"><tspan x="138.39" y="421.579">Endpoint</tspan></text>
<path d="M1577.64 788.84H1493.56" stroke="#F26733" stroke-width="5" stroke-miterlimit="10"/>
<path d="M1493.56 892.65H1577.64" stroke="#239B7F" stroke-width="5" stroke-miterlimit="10"/>
<path d="M1493.56 839.01H1577.64" stroke="#004DC8" stroke-width="5" stroke-miterlimit="10"/>
<path d="M1827.39 305.48H1494.04V392.81H1827.39V305.48Z" fill="white" stroke="#3E74FF" stroke-width="2.04"/>
<path d="M1828.2 407.7H1494.85V495.03H1828.2V407.7Z" fill="white" stroke="#3E74FF" stroke-width="2.04"/>
<path d="M1827.79 509.91H1494.44V597.24H1827.79V509.91Z" fill="white" stroke="#3E74FF" stroke-width="2.04"/>
<path d="M1828.6 612.12H1495.25V699.45H1828.6V612.12Z" fill="white" stroke="#3E74FF" stroke-width="2.04"/>
<text fill="black" style="white-space: pre" xml:space="preserve" font-family="Inter" font-size="31" font-weight="600" letter-spacing="0em"><tspan x="1598" y="357.163">SaaS apps</tspan></text>
<text fill="black" style="white-space: pre" xml:space="preserve" font-family="Inter" font-size="31" font-weight="600" letter-spacing="0em"><tspan x="1598" y="463.653">Internet apps</tspan></text>
<text fill="black" style="white-space: pre" xml:space="preserve" font-family="Inter" font-size="31" font-weight="600" letter-spacing="0em"><tspan x="1598" y="563.703">Data center</tspan></text>
<text fill="black" style="white-space: pre" xml:space="preserve" font-family="Inter" font-size="31" font-weight="600" letter-spacing="0em"><tspan x="1598" y="648.863">Self-hosted </tspan></text>
<text fill="black" style="white-space: pre" xml:space="preserve" font-family="Inter" font-size="31" font-weight="600" letter-spacing="0em"><tspan x="1598" y="686.063">apps</tspan></text>
<path d="M1562.12 336.05C1563.23 336.05 1564.13 335.15 1564.13 334.04C1564.13 332.93 1563.23 332.03 1562.12 332.03C1561.01 332.03 1560.11 332.93 1560.11 334.04C1560.11 335.15 1561.01 336.05 1562.12 336.05Z" fill="#3E74FF"/>
<path d="M1568.37 326.36H1522.22L1520.3 328.28V340.64L1522.22 342.56H1568.37L1570.29 340.64V328.28L1568.37 326.36ZM1566.45 338.72H1524.14V330.21H1566.45V338.72Z" fill="#3E74FF"/>
<path d="M1562.12 354.87C1563.23 354.87 1564.13 353.97 1564.13 352.86C1564.13 351.75 1563.23 350.85 1562.12 350.85C1561.01 350.85 1560.11 351.75 1560.11 352.86C1560.11 353.97 1561.01 354.87 1562.12 354.87Z" fill="#3E74FF"/>
<path d="M1522.22 345.18L1520.3 347.1V359.46L1522.22 361.38H1524C1523.92 361.87 1523.87 362.37 1523.87 362.87C1523.87 365.49 1524.92 367.99 1526.77 369.84C1528.62 371.69 1531.13 372.73 1533.74 372.74H1558.35C1560.57 372.74 1562.71 371.85 1564.28 370.28C1565.85 368.71 1566.74 366.58 1566.74 364.35C1566.74 363.34 1566.56 362.33 1566.22 361.38H1568.39L1570.31 359.46V347.1L1568.39 345.18H1522.24H1522.22ZM1525.45 357.54H1524.14V349.03H1536.48C1535.34 350.17 1534.42 351.51 1533.77 352.99C1531.47 352.94 1529.23 353.74 1527.47 355.23C1526.68 355.9 1526 356.68 1525.45 357.55V357.54ZM1558.34 368.9H1533.71C1532.12 368.9 1530.59 368.26 1529.47 367.13C1528.34 366 1527.71 364.47 1527.71 362.88C1527.73 361.98 1527.93 361.1 1528.32 360.29C1528.7 359.48 1529.26 358.76 1529.94 358.18C1530.96 357.31 1532.26 356.84 1533.59 356.84C1533.97 356.84 1534.34 356.87 1534.71 356.94L1536.38 357.23L1536.88 355.61C1537.53 353.5 1538.91 351.69 1540.77 350.5C1542.63 349.31 1544.85 348.82 1547.04 349.12C1549.23 349.42 1551.24 350.48 1552.71 352.13C1554.19 353.77 1555.03 355.88 1555.09 358.09L1555.15 360.28L1557.32 359.93C1558.01 359.78 1558.73 359.78 1559.42 359.93C1560.11 360.09 1560.76 360.4 1561.31 360.83C1561.81 361.27 1562.2 361.81 1562.47 362.42C1562.74 363.03 1562.87 363.68 1562.87 364.35C1562.87 365.55 1562.39 366.71 1561.54 367.56C1560.69 368.41 1559.54 368.89 1558.33 368.89L1558.34 368.9ZM1566.45 357.54H1563.31C1561.98 356.58 1560.39 356.05 1558.75 356C1558.29 353.36 1557.02 350.93 1555.13 349.03H1566.45V357.54Z" fill="#3E74FF"/>
<path fill-rule="evenodd" clip-rule="evenodd" d="M1525.99 446.75C1525.62 448.25 1525.42 449.81 1525.42 451.43C1525.42 452.92 1525.59 454.38 1525.91 455.77H1531.68C1531.52 454.36 1531.44 452.91 1531.44 451.43C1531.44 449.83 1531.54 448.27 1531.72 446.75H1525.99ZM1527.23 443.24H1532.31C1532.94 440.41 1533.9 437.84 1535.12 435.67C1535.41 435.15 1535.72 434.65 1536.05 434.17C1532.19 436.12 1529.07 439.32 1527.23 443.24ZM1544.91 428.6C1544.85 428.6 1544.79 428.6 1544.73 428.6C1532.12 428.6 1521.9 438.82 1521.9 451.43C1521.9 464.04 1532.12 474.26 1544.73 474.26C1544.79 474.26 1544.85 474.26 1544.91 474.26C1544.95 474.26 1544.98 474.26 1545.02 474.26C1545.17 474.26 1545.32 474.26 1545.47 474.25C1557.74 473.86 1567.56 463.79 1567.56 451.43C1567.56 439.07 1557.74 429 1545.47 428.61C1545.32 428.61 1545.17 428.6 1545.02 428.6C1544.98 428.6 1544.95 428.6 1544.91 428.6ZM1542.97 432.54C1541.28 433.25 1539.61 434.85 1538.19 437.38C1537.26 439.04 1536.49 441.02 1535.93 443.23H1542.97V432.53V432.54ZM1542.97 446.75H1535.26C1535.06 448.24 1534.95 449.81 1534.95 451.43C1534.95 452.93 1535.04 454.38 1535.21 455.77H1542.96V446.75H1542.97ZM1546.48 455.77V446.75H1554.78C1554.98 448.24 1555.09 449.81 1555.09 451.43C1555.09 452.93 1555 454.38 1554.83 455.77H1546.48ZM1542.97 459.29H1535.85C1536.41 461.64 1537.22 463.74 1538.19 465.48C1539.61 468.01 1541.28 469.61 1542.97 470.32V459.29ZM1536.06 468.69C1535.73 468.21 1535.42 467.71 1535.13 467.19C1533.87 464.94 1532.88 462.25 1532.25 459.29H1527.09C1528.91 463.37 1532.09 466.7 1536.07 468.7L1536.06 468.69ZM1554.3 468.22C1557.86 466.19 1560.71 463.06 1562.39 459.29H1557.8C1557.17 462.25 1556.18 464.94 1554.92 467.19C1554.72 467.54 1554.52 467.88 1554.31 468.21L1554.3 468.22ZM1554.19 459.29H1546.47V470.53C1548.36 469.97 1550.25 468.3 1551.84 465.47C1552.82 463.73 1553.62 461.64 1554.18 459.28L1554.19 459.29ZM1558.36 455.77H1563.56C1563.88 454.37 1564.05 452.92 1564.05 451.43C1564.05 449.82 1563.85 448.25 1563.48 446.75H1558.32C1558.5 448.26 1558.6 449.83 1558.6 451.43C1558.6 452.91 1558.52 454.36 1558.36 455.77ZM1557.72 443.24C1557.09 440.41 1556.13 437.84 1554.91 435.67C1554.71 435.32 1554.51 434.98 1554.3 434.65C1557.75 436.62 1560.54 439.63 1562.23 443.25H1557.72V443.24ZM1554.11 443.24H1546.48V432.33C1548.37 432.89 1550.26 434.56 1551.85 437.39C1552.78 439.05 1553.55 441.03 1554.11 443.24Z" fill="#3E74FF"/>
<path d="M1563.52 536.02L1558.09 531.88L1557.07 531.57H1532.58L1531.57 531.9L1525.98 536.04L1525.29 537.4V569.55L1525.76 570.72L1529.85 575.04L1531.09 575.57H1557.87L1559.03 575.11L1563.67 570.79L1564.21 569.55V537.4L1563.54 536.02H1563.52ZM1560.8 557.52L1557.02 561.7H1533.05L1528.66 557.8V551.51L1531.76 554.26H1558.51L1560.79 551.72V557.52H1560.8ZM1531.77 543.88H1558.49L1560.81 541.51V546.69L1557.03 550.87H1533.06L1528.67 546.98V541.13L1531.77 543.89V543.88ZM1533.13 534.96H1556.5L1559.94 537.59L1557.06 540.53H1533.05L1529.67 537.52L1533.13 534.96ZM1557.2 572.18H1531.82L1528.69 568.87V562.34L1531.79 565.08H1558.51L1560.79 562.54V568.79L1557.19 572.17L1557.2 572.18Z" fill="#3E74FF"/>
<path d="M1555.03 549.04C1555.38 549.04 1555.72 548.94 1556.01 548.74C1556.3 548.55 1556.53 548.27 1556.66 547.95C1556.79 547.63 1556.83 547.27 1556.76 546.93C1556.69 546.59 1556.52 546.27 1556.28 546.02C1556.03 545.77 1555.72 545.6 1555.37 545.54C1555.03 545.47 1554.67 545.51 1554.35 545.64C1554.03 545.77 1553.75 546 1553.56 546.29C1553.37 546.58 1553.26 546.92 1553.26 547.27C1553.26 547.5 1553.3 547.73 1553.39 547.95C1553.48 548.16 1553.61 548.36 1553.77 548.52C1553.93 548.68 1554.13 548.81 1554.34 548.9C1554.56 548.99 1554.79 549.03 1555.02 549.03L1555.03 549.04Z" fill="#3E74FF"/>
<path d="M1555.03 556.11C1554.68 556.11 1554.34 556.21 1554.05 556.41C1553.76 556.6 1553.53 556.88 1553.4 557.2C1553.27 557.52 1553.23 557.88 1553.3 558.22C1553.37 558.56 1553.54 558.88 1553.78 559.13C1554.03 559.38 1554.34 559.55 1554.69 559.61C1555.03 559.68 1555.39 559.64 1555.71 559.51C1556.03 559.38 1556.31 559.15 1556.5 558.86C1556.69 558.57 1556.8 558.23 1556.8 557.88C1556.8 557.41 1556.61 556.96 1556.28 556.63C1555.95 556.3 1555.5 556.11 1555.03 556.11Z" fill="#3E74FF"/>
<path d="M1555.03 566.69C1554.68 566.69 1554.34 566.79 1554.05 566.99C1553.76 567.18 1553.53 567.46 1553.4 567.78C1553.27 568.1 1553.23 568.46 1553.3 568.8C1553.37 569.14 1553.54 569.46 1553.78 569.71C1554.03 569.96 1554.34 570.13 1554.69 570.19C1555.03 570.26 1555.39 570.22 1555.71 570.09C1556.03 569.96 1556.31 569.73 1556.5 569.44C1556.69 569.15 1556.8 568.81 1556.8 568.46C1556.8 567.99 1556.61 567.54 1556.28 567.21C1555.95 566.88 1555.5 566.69 1555.03 566.69Z" fill="#3E74FF"/>
<path d="M1528.87 644.61C1529.92 644.61 1530.77 643.76 1530.77 642.71C1530.77 641.66 1529.92 640.81 1528.87 640.81C1527.82 640.81 1526.97 641.66 1526.97 642.71C1526.97 643.76 1527.82 644.61 1528.87 644.61Z" fill="#3E74FF"/>
<path d="M1534.97 644.61C1536.02 644.61 1536.87 643.76 1536.87 642.71C1536.87 641.66 1536.02 640.81 1534.97 640.81C1533.92 640.81 1533.07 641.66 1533.07 642.71C1533.07 643.76 1533.92 644.61 1534.97 644.61Z" fill="#3E74FF"/>
<path d="M1541.05 644.61C1542.1 644.61 1542.95 643.76 1542.95 642.71C1542.95 641.66 1542.1 640.81 1541.05 640.81C1540 640.81 1539.15 641.66 1539.15 642.71C1539.15 643.76 1540 644.61 1541.05 644.61Z" fill="#3E74FF"/>
<path d="M1566.65 635.93H1522.96L1521.14 637.75V674.04L1522.96 675.86H1566.65L1568.47 674.04V637.75L1566.65 635.93ZM1564.83 639.58V645.89H1524.78V639.58H1564.83ZM1524.78 672.22V649.52H1564.83V672.27L1524.78 672.22Z" fill="#3E74FF"/>
<text fill="black" style="white-space: pre" xml:space="preserve" font-family="Inter" font-size="32.05" font-weight="600" letter-spacing="0em"><tspan x="1563.49" y="238.155">Applications&#10;</tspan></text>
<text fill="black" style="white-space: pre" xml:space="preserve" font-family="Inter" font-size="24" letter-spacing="0em"><tspan x="1563.8" y="267.155">[public &#38; private]</tspan></text>
<text fill="black" style="white-space: pre" xml:space="preserve" font-family="Inter" font-size="16.5" font-weight="bold" letter-spacing="0em"><tspan x="183.043" y="591">User</tspan></text>
<mask id="mask1_1_2" style="mask-type:luminance" maskUnits="userSpaceOnUse" x="1191" y="737" width="62" height="62">
<path d="M1252.31 737.39H1191.42V798.28H1252.31V737.39Z" fill="white"/>
</mask>
<g mask="url(#mask1_1_2)">
<path d="M1243.51 775.03V760.61C1244.26 760.46 1244.96 760.14 1245.56 759.67C1246.16 759.2 1246.63 758.59 1246.95 757.9C1247.27 757.21 1247.41 756.45 1247.38 755.69C1247.34 754.93 1247.13 754.19 1246.75 753.53C1246.37 752.87 1245.84 752.31 1245.2 751.9C1244.56 751.49 1243.83 751.23 1243.07 751.16C1242.31 751.09 1241.55 751.19 1240.84 751.47C1240.13 751.75 1239.5 752.2 1239 752.77L1226.39 745.52C1226.56 745.04 1226.65 744.53 1226.66 744.02C1226.66 743.39 1226.54 742.77 1226.3 742.19C1226.06 741.61 1225.71 741.08 1225.26 740.64C1224.82 740.2 1224.29 739.84 1223.71 739.6C1223.13 739.36 1222.51 739.24 1221.88 739.24C1221.25 739.24 1220.63 739.36 1220.05 739.6C1219.47 739.84 1218.94 740.19 1218.5 740.64C1218.06 741.08 1217.7 741.61 1217.46 742.19C1217.22 742.77 1217.1 743.39 1217.1 744.02C1217.1 744.53 1217.2 745.04 1217.37 745.52L1204.76 752.77C1204.32 752.26 1203.77 751.85 1203.15 751.56C1202.53 751.28 1201.86 751.13 1201.18 751.13C1199.99 751.13 1198.85 751.57 1197.97 752.37C1197.09 753.17 1196.54 754.26 1196.42 755.45C1196.3 756.63 1196.63 757.82 1197.33 758.77C1198.03 759.73 1199.07 760.39 1200.23 760.63V775.05C1199.48 775.2 1198.78 775.52 1198.18 775.99C1197.58 776.46 1197.1 777.07 1196.79 777.77C1196.47 778.46 1196.33 779.22 1196.36 779.99C1196.4 780.75 1196.61 781.49 1197 782.16C1197.38 782.82 1197.91 783.38 1198.56 783.79C1199.2 784.2 1199.93 784.46 1200.69 784.53C1201.45 784.6 1202.22 784.49 1202.92 784.21C1203.63 783.93 1204.26 783.48 1204.76 782.9L1217.37 790.15C1217.2 790.63 1217.11 791.14 1217.1 791.65C1217.1 792.28 1217.22 792.9 1217.46 793.48C1217.7 794.06 1218.05 794.59 1218.5 795.03C1218.94 795.47 1219.47 795.83 1220.05 796.07C1220.63 796.31 1221.25 796.43 1221.88 796.43C1222.51 796.43 1223.13 796.31 1223.71 796.07C1224.29 795.83 1224.82 795.48 1225.26 795.03C1225.7 794.59 1226.06 794.06 1226.3 793.48C1226.54 792.9 1226.66 792.28 1226.66 791.65C1226.66 791.14 1226.56 790.63 1226.39 790.15L1239 782.9C1239.5 783.47 1240.13 783.91 1240.84 784.19C1241.55 784.47 1242.31 784.57 1243.06 784.5C1243.81 784.42 1244.54 784.17 1245.18 783.76C1245.82 783.35 1246.35 782.79 1246.73 782.13C1247.11 781.47 1247.33 780.74 1247.36 779.98C1247.4 779.22 1247.25 778.47 1246.94 777.78C1246.63 777.09 1246.16 776.48 1245.56 776.01C1244.97 775.54 1244.27 775.21 1243.53 775.06L1243.51 775.03ZM1242.56 753.01C1243.13 753.01 1243.69 753.18 1244.17 753.49C1244.65 753.81 1245.02 754.26 1245.24 754.79C1245.46 755.32 1245.52 755.9 1245.41 756.46C1245.3 757.02 1245.02 757.54 1244.62 757.94C1244.22 758.35 1243.7 758.62 1243.14 758.73C1242.58 758.84 1242 758.79 1241.47 758.57C1240.94 758.35 1240.49 757.98 1240.17 757.5C1239.85 757.02 1239.68 756.46 1239.68 755.89C1239.68 755.12 1239.98 754.39 1240.52 753.85C1241.06 753.31 1241.79 753 1242.56 753V753.01ZM1221.86 741.11C1222.43 741.11 1222.99 741.28 1223.47 741.59C1223.95 741.91 1224.32 742.36 1224.54 742.89C1224.76 743.42 1224.82 744 1224.71 744.56C1224.6 745.12 1224.32 745.64 1223.92 746.04C1223.52 746.45 1223 746.72 1222.44 746.83C1221.88 746.94 1221.3 746.89 1220.77 746.67C1220.24 746.45 1219.79 746.08 1219.47 745.6C1219.15 745.12 1218.98 744.56 1218.98 743.99C1218.98 743.22 1219.28 742.49 1219.82 741.95C1220.36 741.41 1221.09 741.1 1221.86 741.1V741.11ZM1198.27 755.9C1198.27 755.33 1198.44 754.77 1198.76 754.3C1199.08 753.83 1199.53 753.46 1200.06 753.24C1200.59 753.02 1201.17 752.97 1201.72 753.08C1202.28 753.19 1202.79 753.47 1203.19 753.87C1203.59 754.27 1203.87 754.79 1203.98 755.35C1204.09 755.91 1204.03 756.49 1203.81 757.01C1203.59 757.54 1203.22 757.99 1202.75 758.3C1202.28 758.62 1201.72 758.79 1201.15 758.79C1200.38 758.79 1199.65 758.48 1199.11 757.94C1198.57 757.4 1198.27 756.66 1198.27 755.9ZM1201.15 782.61C1200.58 782.61 1200.02 782.44 1199.54 782.13C1199.06 781.81 1198.69 781.36 1198.47 780.83C1198.25 780.3 1198.19 779.72 1198.3 779.16C1198.41 778.6 1198.69 778.08 1199.09 777.68C1199.49 777.27 1200.01 777 1200.57 776.89C1201.13 776.78 1201.71 776.83 1202.24 777.05C1202.77 777.27 1203.22 777.64 1203.54 778.12C1203.86 778.6 1204.03 779.16 1204.03 779.73C1204.03 780.5 1203.73 781.23 1203.19 781.77C1202.65 782.31 1201.92 782.62 1201.15 782.62V782.61ZM1221.86 794.52C1221.29 794.52 1220.73 794.35 1220.25 794.04C1219.77 793.72 1219.4 793.27 1219.18 792.74C1218.96 792.21 1218.9 791.63 1219.01 791.07C1219.12 790.51 1219.4 789.99 1219.8 789.59C1220.2 789.18 1220.72 788.91 1221.28 788.8C1221.84 788.69 1222.42 788.74 1222.95 788.96C1223.48 789.18 1223.93 789.55 1224.25 790.03C1224.57 790.51 1224.74 791.07 1224.74 791.64C1224.74 792.41 1224.44 793.14 1223.9 793.68C1223.36 794.22 1222.63 794.53 1221.86 794.53V794.52ZM1225.42 788.47C1224.98 787.96 1224.43 787.54 1223.81 787.26C1223.19 786.98 1222.52 786.83 1221.84 786.83C1221.16 786.83 1220.49 786.98 1219.87 787.26C1219.25 787.54 1218.7 787.95 1218.26 788.47L1205.65 781.22C1205.82 780.74 1205.91 780.23 1205.92 779.72C1205.92 778.61 1205.54 777.54 1204.84 776.69C1204.14 775.83 1203.17 775.24 1202.09 775.02V760.6C1203.17 760.38 1204.15 759.79 1204.84 758.93C1205.54 758.07 1205.92 757 1205.92 755.9C1205.92 755.39 1205.82 754.88 1205.65 754.4L1218.26 747.15C1218.7 747.66 1219.25 748.07 1219.87 748.36C1220.49 748.64 1221.16 748.79 1221.84 748.79C1222.52 748.79 1223.19 748.64 1223.8 748.36C1224.42 748.08 1224.97 747.67 1225.41 747.16L1238.02 754.41C1237.85 754.89 1237.76 755.4 1237.75 755.91C1237.75 757.02 1238.13 758.09 1238.83 758.94C1239.53 759.8 1240.5 760.39 1241.58 760.61V775.03C1240.5 775.25 1239.52 775.84 1238.83 776.7C1238.13 777.56 1237.75 778.63 1237.75 779.73C1237.75 780.24 1237.85 780.75 1238.02 781.23L1225.41 788.48L1225.42 788.47ZM1242.56 782.61C1241.99 782.61 1241.43 782.44 1240.95 782.13C1240.47 781.81 1240.1 781.36 1239.88 780.83C1239.66 780.3 1239.6 779.72 1239.71 779.16C1239.82 778.6 1240.1 778.08 1240.5 777.68C1240.9 777.27 1241.42 777 1241.98 776.89C1242.54 776.78 1243.12 776.83 1243.65 777.05C1244.18 777.27 1244.63 777.64 1244.95 778.12C1245.27 778.6 1245.44 779.16 1245.44 779.73C1245.44 780.5 1245.14 781.23 1244.6 781.77C1244.06 782.31 1243.33 782.62 1242.56 782.62V782.61Z" fill="#EC0000"/>
<path d="M1233.45 769C1232.91 769 1232.38 769.17 1231.94 769.47C1231.49 769.78 1231.15 770.21 1230.96 770.72H1214.48V761.03H1220.9V763.94C1220.9 764.19 1221 764.43 1221.18 764.61C1221.36 764.79 1221.6 764.89 1221.85 764.89H1225.46C1225.68 765.47 1226.1 765.96 1226.65 766.27C1227.19 766.58 1227.83 766.68 1228.44 766.57C1229.05 766.46 1229.61 766.13 1230.01 765.65C1230.41 765.17 1230.63 764.56 1230.63 763.94C1230.63 763.32 1230.41 762.71 1230.01 762.23C1229.61 761.75 1229.05 761.42 1228.44 761.31C1227.83 761.2 1227.19 761.31 1226.65 761.61C1226.11 761.92 1225.69 762.4 1225.46 762.99H1222.81V757.16H1225.46C1225.68 757.74 1226.1 758.23 1226.65 758.54C1227.19 758.85 1227.83 758.95 1228.44 758.84C1229.05 758.73 1229.61 758.4 1230.01 757.92C1230.41 757.44 1230.63 756.83 1230.63 756.21C1230.63 755.59 1230.41 754.98 1230.01 754.5C1229.61 754.02 1229.05 753.69 1228.44 753.58C1227.83 753.47 1227.19 753.58 1226.65 753.88C1226.11 754.19 1225.69 754.67 1225.46 755.26H1221.85C1221.6 755.26 1221.36 755.36 1221.18 755.54C1221 755.72 1220.9 755.96 1220.9 756.21V759.12H1213.53C1213.28 759.12 1213.04 759.22 1212.86 759.4C1212.68 759.58 1212.58 759.82 1212.58 760.07V770.72H1208.47C1208.22 770.72 1207.98 770.82 1207.8 771C1207.62 771.18 1207.52 771.42 1207.52 771.67C1207.52 771.92 1207.62 772.16 1207.8 772.34C1207.98 772.52 1208.22 772.62 1208.47 772.62H1212.58V779.4C1212.58 779.65 1212.68 779.89 1212.86 780.07C1213.04 780.25 1213.28 780.35 1213.53 780.35H1225.46C1225.68 780.93 1226.1 781.42 1226.65 781.73C1227.19 782.04 1227.83 782.14 1228.44 782.03C1229.05 781.92 1229.61 781.59 1230.01 781.11C1230.41 780.63 1230.63 780.02 1230.63 779.4C1230.63 778.78 1230.41 778.17 1230.01 777.69C1229.61 777.21 1229.05 776.88 1228.44 776.77C1227.83 776.66 1227.19 776.77 1226.65 777.07C1226.11 777.38 1225.69 777.86 1225.46 778.45H1214.48V772.62H1230.96C1231.13 773.08 1231.43 773.47 1231.81 773.77C1232.19 774.07 1232.65 774.26 1233.14 774.32C1233.62 774.38 1234.11 774.3 1234.56 774.1C1235 773.9 1235.38 773.58 1235.66 773.18C1235.94 772.78 1236.1 772.31 1236.13 771.82C1236.16 771.33 1236.05 770.85 1235.83 770.42C1235.6 769.99 1235.26 769.63 1234.85 769.38C1234.43 769.13 1233.96 769 1233.47 769H1233.45Z" fill="#EC0000"/>
</g>
<mask id="mask2_1_2" style="mask-type:luminance" maskUnits="userSpaceOnUse" x="921" y="735" width="65" height="65">
<path d="M985.51 735.83H921.51V799.83H985.51V735.83Z" fill="white"/>
</mask>
<g mask="url(#mask2_1_2)">
<path d="M982.51 784.42L982.62 755.94L982.59 743.83H926.87V760.21H925.77C924.52 760.21 923.51 761.22 923.51 762.47V787.15C923.51 788.4 924.52 789.41 925.77 789.41H938.51C939.76 789.41 940.77 788.4 940.77 787.15V784.41H948.65V790.87H941.34C940.79 790.87 940.34 791.32 940.34 791.87C940.34 792.42 940.79 792.87 941.34 792.87H968.16C968.71 792.87 969.16 792.42 969.16 791.87C969.16 791.32 968.71 790.87 968.16 790.87H960.85V784.41H982.51V784.42ZM938.78 787.15C938.78 787.29 938.66 787.41 938.52 787.41H925.78C925.64 787.41 925.52 787.29 925.52 787.15V784.25H938.78V787.15ZM938.78 782.25H925.52V767.82H938.78V782.25ZM938.78 765.82H925.52V762.47C925.52 762.33 925.64 762.21 925.78 762.21H938.52C938.66 762.21 938.78 762.33 938.78 762.47V765.82ZM958.85 790.87H950.65V784.41H958.85V790.87ZM943.73 782.42H940.78V762.47C940.78 761.22 939.77 760.21 938.52 760.21H928.87V745.83H980.59L980.61 755.94L980.5 782.42H943.73Z" fill="#EC0000"/>
<path d="M946.13 758.1V762.61C946.13 768.02 949.36 772.83 954.37 774.87L954.75 775.02L955.13 774.87C960.14 772.83 963.37 768.01 963.37 762.61V758.1L954.75 754.52L946.13 758.1ZM961.37 762.62C961.37 767.07 958.79 771.05 954.75 772.87C950.72 771.05 948.13 767.07 948.13 762.62V759.44L954.75 756.69L961.37 759.44V762.62Z" fill="#EC0000"/>
<path d="M934.68 762.97H929.62C929.07 762.97 928.62 763.42 928.62 763.97V764.17C928.62 764.72 929.07 765.17 929.62 765.17H934.68C935.23 765.17 935.68 764.72 935.68 764.17V763.97C935.68 763.42 935.23 762.97 934.68 762.97Z" fill="#EC0000"/>
</g>
<mask id="mask3_1_2" style="mask-type:luminance" maskUnits="userSpaceOnUse" x="657" y="739" width="59" height="58">
<path d="M715.88 739.52H657.57V796.36H715.88V739.52Z" fill="white"/>
</mask>
<g mask="url(#mask3_1_2)">
<path d="M686.88 780.81L675.73 774.37V761.5L686.88 755.06L698.03 761.5V774.37L686.88 780.81ZM677.62 773.29L686.88 778.63L696.14 773.29V762.6L686.88 757.26L677.62 762.6V773.29Z" fill="#EC0000"/>
<path d="M708.34 775.03V771.42H706.45V775.03C704.22 775.47 702.54 777.44 702.54 779.79C702.54 780.33 702.65 780.85 702.82 781.34L690.59 788.4C689.7 787.33 688.38 786.64 686.88 786.64C685.38 786.64 684.06 787.33 683.17 788.4L671.31 781.55L670.96 781.35C671.12 780.87 671.22 780.37 671.22 779.84C671.22 777.48 669.53 775.52 667.31 775.07V771.42H665.42V775.07C663.19 775.51 661.51 777.48 661.51 779.84C661.51 782.52 663.69 784.7 666.37 784.7C667.84 784.7 669.14 784.03 670.03 783L670.3 783.15L682.27 790.06C682.13 790.52 682.03 791 682.03 791.5C682.03 794.18 684.21 796.36 686.89 796.36C689.57 796.36 691.75 794.18 691.75 791.5C691.75 790.99 691.65 790.52 691.51 790.06L703.77 782.98C704.66 784 705.95 784.65 707.41 784.65C710.09 784.65 712.27 782.47 712.27 779.79C712.27 777.43 710.58 775.47 708.36 775.03M666.36 782.81C664.72 782.81 663.39 781.48 663.39 779.84C663.39 778.2 664.72 776.87 666.36 776.87C668 776.87 669.33 778.2 669.33 779.84C669.33 781.48 668 782.81 666.36 782.81ZM686.88 794.47C685.24 794.47 683.91 793.14 683.91 791.5C683.91 791.34 683.93 791.19 683.96 791.04C684.06 790.38 684.38 789.8 684.84 789.36C685.37 788.85 686.09 788.53 686.88 788.53C687.67 788.53 688.39 788.85 688.92 789.36C689.38 789.8 689.69 790.38 689.8 791.04C689.82 791.19 689.85 791.34 689.85 791.5C689.85 793.14 688.52 794.47 686.88 794.47ZM707.4 782.76C706.65 782.76 705.97 782.47 705.45 782.01C704.97 781.59 704.62 781.02 704.49 780.38C704.45 780.19 704.43 780 704.43 779.8C704.43 778.5 705.28 777.4 706.45 777C706.75 776.9 707.06 776.83 707.4 776.83C707.74 776.83 708.05 776.9 708.35 777C709.52 777.4 710.37 778.49 710.37 779.8C710.37 781.44 709.04 782.77 707.4 782.77" fill="#EC0000"/>
<path d="M707.4 751.27C705.96 751.27 704.67 751.91 703.78 752.92L691.5 745.83C691.64 745.37 691.74 744.89 691.74 744.39C691.74 741.71 689.56 739.53 686.88 739.53C684.2 739.53 682.02 741.71 682.02 744.39C682.02 744.9 682.12 745.37 682.26 745.83L669.98 752.92C669.09 751.92 667.81 751.27 666.36 751.27C663.68 751.27 661.5 753.45 661.5 756.13C661.5 758.49 663.19 760.45 665.41 760.89V764.46H667.3V760.89C669.53 760.45 671.21 758.48 671.21 756.13C671.21 755.57 671.1 755.05 670.92 754.55L683.15 747.49C684.04 748.56 685.37 749.25 686.86 749.25C688.35 749.25 689.68 748.56 690.57 747.49L702.81 754.55C702.64 755.05 702.52 755.57 702.52 756.13C702.52 758.49 704.21 760.45 706.43 760.89V764.46H708.32V760.89C710.55 760.45 712.23 758.48 712.23 756.13C712.23 753.45 710.05 751.27 707.37 751.27M667.31 758.92C667.01 759.02 666.7 759.09 666.36 759.09C666.02 759.09 665.71 759.02 665.41 758.92C664.24 758.52 663.39 757.43 663.39 756.12C663.39 754.48 664.72 753.15 666.36 753.15C667.1 753.15 667.77 753.43 668.29 753.88C668.77 754.3 669.13 754.86 669.26 755.5C669.3 755.7 669.32 755.9 669.32 756.11C669.32 757.41 668.47 758.51 667.3 758.91L667.31 758.92ZM689.8 744.84C689.7 745.5 689.38 746.08 688.92 746.52C688.39 747.03 687.67 747.35 686.88 747.35C686.09 747.35 685.37 747.03 684.84 746.52C684.38 746.08 684.07 745.5 683.96 744.84C683.94 744.69 683.91 744.54 683.91 744.38C683.91 742.74 685.24 741.41 686.88 741.41C688.52 741.41 689.85 742.74 689.85 744.38C689.85 744.54 689.83 744.69 689.8 744.84ZM708.34 758.92C708.04 759.02 707.73 759.09 707.39 759.09C707.05 759.09 706.74 759.02 706.44 758.92C705.27 758.52 704.42 757.43 704.42 756.12C704.42 755.91 704.44 755.7 704.49 755.51C704.63 754.86 704.98 754.3 705.46 753.89C705.98 753.44 706.65 753.16 707.39 753.16C709.03 753.16 710.36 754.49 710.36 756.13C710.36 757.43 709.51 758.53 708.34 758.93" fill="#EC0000"/>
<path d="M675.73 763.52H657.57V765.41H675.73V763.52Z" fill="#EC0000"/>
<path d="M675.73 766.99H657.57V768.88H675.73V766.99Z" fill="#EC0000"/>
<path d="M675.73 770.47H657.57V772.36H675.73V770.47Z" fill="#EC0000"/>
<path d="M715.87 763.52H697.71V765.41H715.87V763.52Z" fill="#EC0000"/>
<path d="M715.87 766.99H697.71V768.88H715.87V766.99Z" fill="#EC0000"/>
<path d="M715.87 770.47H697.71V772.36H715.87V770.47Z" fill="#EC0000"/>
</g>
<text fill="black" style="white-space: pre" xml:space="preserve" font-family="Inter" font-size="32.05" font-weight="600" letter-spacing="0em"><tspan x="638.545" y="834.155">Falcon&#10;</tspan><tspan x="622.348" y="873.155">Next-Gen&#10;</tspan><tspan x="650.939" y="912.155">SIEM</tspan></text>
<text fill="black" style="white-space: pre" xml:space="preserve" font-family="Inter" font-size="32.05" font-weight="600" letter-spacing="0em"><tspan x="905" y="834.155">Falcon&#10;</tspan><tspan x="905" y="873.155">device&#10;</tspan><tspan x="905" y="912.155">posture</tspan></text>
<text fill="black" style="white-space: pre" xml:space="preserve" font-family="Inter" font-size="32.05" font-weight="600" letter-spacing="0em"><tspan x="1170.92" y="834.155">Fusion&#10;</tspan><tspan x="1177.79" y="873.155">SOAR</tspan></text>
</g>
<defs>
<clipPath id="clip0_1_2">
<rect width="1920" height="1080" fill="white"/>
</clipPath>
</defs>
</svg>
