<svg width="1920" height="1080" viewBox="0 0 1920 1080" fill="none" xmlns="http://www.w3.org/2000/svg">
<g clip-path="url(#clip0_1_1955)">
<path d="M1920 0H0V1080H1920V0Z" fill="white"/>
<path d="M301.33 179.66H85.59V399.91H301.33V179.66Z" fill="white" stroke="#B0291C" stroke-width="2" stroke-miterlimit="10"/>
<path d="M1394.28 166.9H516.73V471.74H1394.28V166.9Z" fill="white" stroke="#F6821F" stroke-width="2.31"/>
<path d="M1158.59 146.37H752.42V194.37H1158.59V146.37Z" fill="white"/>
<path d="M857.57 179.08L858.14 177.09C858.82 174.73 858.57 172.53 857.42 170.94C856.36 169.47 854.6 168.59 852.46 168.49L811.95 167.98C811.67 167.97 811.45 167.84 811.31 167.65C811.17 167.44 811.14 167.18 811.23 166.91C811.37 166.51 811.76 166.22 812.17 166.19L853.07 165.68C857.92 165.46 863.17 161.53 865.02 156.72L867.35 150.62C867.42 150.45 867.45 150.27 867.45 150.11C867.45 150.01 867.44 149.92 867.42 149.82C864.74 137.9 854.11 128.99 841.4 128.99C829.7 128.99 819.75 136.55 816.18 147.05C813.87 145.33 810.93 144.41 807.77 144.72C802.16 145.28 797.64 149.81 797.07 155.42C796.92 156.88 797.04 158.28 797.38 159.6C788.21 159.89 780.85 167.41 780.85 176.65C780.85 177.48 780.92 178.3 781.03 179.11C781.09 179.5 781.42 179.79 781.81 179.79H856.61C856.61 179.79 856.62 179.8 856.64 179.8C857.07 179.79 857.45 179.51 857.57 179.09V179.08Z" fill="#F78100"/>
<path d="M871.06 151.05C870.68 151.05 870.31 151.06 869.93 151.08C869.87 151.08 869.8 151.09 869.75 151.12C869.56 151.19 869.4 151.34 869.35 151.55L867.77 157.04C867.09 159.4 867.34 161.58 868.49 163.19C869.55 164.68 871.31 165.54 873.45 165.64L882.09 166.15C882.34 166.16 882.56 166.29 882.7 166.48C882.84 166.69 882.88 166.95 882.8 167.22C882.66 167.62 882.27 167.91 881.86 167.94L872.88 168.45C868 168.67 862.75 172.6 860.92 177.41L860.27 179.11C860.16 179.42 860.37 179.75 860.7 179.76H891.61C891.99 179.76 892.3 179.52 892.4 179.16C892.94 177.26 893.22 175.24 893.22 173.16C893.21 160.95 883.3 151.04 871.06 151.04V151.05Z" fill="#FBAC42"/>
<path d="M927.28 160.97H932.39V174.95H941.32V179.42H927.28V160.97Z" fill="black"/>
<path d="M946.63 170.25V170.19C946.63 164.9 950.9 160.59 956.59 160.59C962.28 160.59 966.5 164.84 966.5 170.14V170.2C966.5 175.49 962.23 179.8 956.54 179.8C950.85 179.8 946.63 175.55 946.63 170.25ZM961.29 170.25V170.19C961.29 167.52 959.37 165.2 956.55 165.2C953.73 165.2 951.88 167.46 951.88 170.13V170.19C951.88 172.86 953.8 175.18 956.6 175.18C959.4 175.18 961.28 172.92 961.28 170.25" fill="black"/>
<path d="M972.76 171.34V160.98H977.96V171.23C977.96 173.9 979.31 175.16 981.36 175.16C983.41 175.16 984.76 173.95 984.76 171.37V160.98H989.96V171.21C989.96 177.17 986.56 179.78 981.32 179.78C976.05 179.78 972.76 177.11 972.76 171.35" fill="black"/>
<path d="M997.77 160.97H1004.88C1011.47 160.97 1015.3 164.76 1015.3 170.08V170.14C1015.3 175.46 1011.42 179.42 1004.78 179.42H997.76V160.97H997.77ZM1004.98 174.89C1008.04 174.89 1010.07 173.21 1010.07 170.22V170.16C1010.07 167.21 1008.04 165.49 1004.98 165.49H1002.9V174.88H1004.98V174.89Z" fill="black"/>
<path d="M1022.74 160.97H1037.51V165.46H1027.85V168.59H1036.59V172.84H1027.85V179.42H1022.74V160.97Z" fill="black"/>
<path d="M1044.62 160.97H1049.74V174.95H1058.68V179.42H1044.62V160.97Z" fill="black"/>
<path d="M1072.05 160.83H1076.98L1084.84 179.42H1079.35L1078 176.13H1070.89L1069.57 179.42H1064.19L1072.04 160.83H1072.05ZM1076.52 172.16L1074.46 166.91L1072.38 172.16H1076.52Z" fill="black"/>
<path d="M1091.42 160.97H1100.15C1102.97 160.97 1104.92 161.71 1106.17 162.97C1107.25 164.03 1107.81 165.44 1107.81 167.26V167.32C1107.81 170.14 1106.31 172.02 1104.02 172.99L1108.42 179.42H1102.5L1098.79 173.83H1096.55V179.42H1091.44V160.97H1091.43H1091.42ZM1099.91 169.82C1101.65 169.82 1102.65 168.97 1102.65 167.64V167.58C1102.65 166.14 1101.59 165.4 1099.89 165.4H1096.54V169.82H1099.92H1099.91Z" fill="black"/>
<path d="M916.08 172.42C915.36 174.03 913.86 175.18 911.86 175.18C909.07 175.18 907.14 172.86 907.14 170.19V170.13C907.14 167.46 909.02 165.2 911.81 165.2C913.92 165.2 915.52 166.49 916.2 168.26H921.59C920.73 163.87 916.87 160.59 911.86 160.59C906.16 160.59 901.9 164.88 901.9 170.19V170.25C901.9 175.54 906.12 179.8 911.81 179.8C916.69 179.8 920.49 176.65 921.49 172.42H916.09H916.08Z" fill="black"/>
<path d="M1115.16 160.96H1130.03V165.32H1120.23V168.11H1129.11V172.16H1120.23V175.09H1130.17V179.45H1115.16V160.96Z" fill="black"/>
<path fill-rule="evenodd" clip-rule="evenodd" d="M1365.48 210.83V455.84H545.53V210.83H1365.48Z" fill="#FFF1DF"/>
<path d="M803.29 333.64H575.57V417.73H803.29V333.64Z" fill="white" stroke="#FF6633" stroke-width="2"/>
<path d="M624.01 358.22L621.94 360.34L635.23 373.37H601.7V376.34H635.23L621.94 389.37L624.01 391.5L641 374.86L624.01 358.22Z" fill="#FF6633"/>
<path d="M1069.37 333.64H841.65V417.73H1069.37V333.64Z" fill="white" stroke="#FF6633" stroke-width="2"/>
<mask id="mask0_1_1955" style="mask-type:luminance" maskUnits="userSpaceOnUse" x="874" y="349" width="51" height="51">
<path d="M924.44 349.81H874.34V399.91H924.44V349.81Z" fill="white"/>
</mask>
<g mask="url(#mask0_1_1955)">
<path d="M903.15 358.25C899.65 358.25 896.23 359.36 893.4 361.41C890.56 363.47 888.45 366.37 887.37 369.7L887.26 370.04H890.31L890.38 369.88C891.51 367.02 893.57 364.62 896.23 363.07C898.89 361.52 901.99 360.91 905.04 361.34C908.09 361.77 910.9 363.21 913.03 365.44C915.16 367.66 916.47 370.54 916.77 373.6C917.06 376.66 916.32 379.74 914.65 382.32C912.98 384.91 910.49 386.86 907.58 387.86C904.67 388.86 901.51 388.85 898.6 387.83C895.7 386.81 893.22 384.85 891.57 382.25C891.49 382.13 891.42 382.02 891.35 381.89L891.19 381.62H887.99L888.18 382C888.47 382.62 888.8 383.22 889.17 383.8C890.72 386.23 892.88 388.21 895.43 389.55C897.98 390.89 900.84 391.54 903.72 391.45C906.6 391.35 909.41 390.5 911.86 388.99C914.31 387.48 916.33 385.35 917.72 382.82C919.1 380.29 919.81 377.45 919.76 374.56C919.71 371.68 918.91 368.86 917.44 366.38C915.97 363.9 913.88 361.85 911.37 360.42C908.86 358.99 906.03 358.24 903.15 358.24V358.25Z" fill="#FF6633"/>
<path d="M903.93 372.58L898.11 366.76L896.18 368.69L899.56 372.08H874.35L875.98 374.81H903L903.93 372.57V372.58Z" fill="#FF6633"/>
<path d="M903.89 384.92L901.96 382.99L905.34 379.6H878.81L877.19 376.86H908.78L909.71 379.11L903.89 384.93V384.92Z" fill="#FF6633"/>
</g>
<path d="M1335.45 333.64H1107.73V417.73H1335.45V333.64Z" fill="white" stroke="#FF6633" stroke-width="2"/>
<path d="M1206.59 359.07H1177.64L1176.32 360.39V389.34L1177.64 390.66H1206.59L1207.91 389.34V360.39L1206.59 359.07ZM1205.27 388.02H1178.95V361.7H1205.27V388.02Z" fill="#FF6633"/>
<path d="M1183.3 377.82H1186.95L1187.7 380.12H1189.99L1186.5 370.01H1183.75L1180.26 380.12H1182.55L1183.3 377.82ZM1185.09 372.32H1185.17L1186.41 376.15H1183.84L1185.09 372.32Z" fill="#FF6633"/>
<path d="M1193.21 376.84H1195.01C1195.7 376.86 1196.38 376.71 1197 376.41C1197.53 376.14 1197.97 375.72 1198.26 375.21C1198.56 374.67 1198.71 374.05 1198.69 373.43C1198.7 372.81 1198.56 372.2 1198.26 371.65C1197.97 371.14 1197.54 370.72 1197.02 370.44C1196.41 370.13 1195.74 369.98 1195.06 370H1191.07V380.11H1193.21V376.83V376.84ZM1193.21 371.76H1194.65C1195 371.75 1195.36 371.82 1195.68 371.97C1195.94 372.1 1196.15 372.3 1196.28 372.56C1196.41 372.84 1196.48 373.14 1196.48 373.44C1196.48 373.74 1196.41 374.05 1196.28 374.32C1196.15 374.58 1195.93 374.79 1195.68 374.92C1195.36 375.07 1195.01 375.15 1194.66 375.14H1193.21V371.77V371.76Z" fill="#FF6633"/>
<path d="M1202.64 370.01H1200.5V380.12H1202.64V370.01Z" fill="#FF6633"/>
<path d="M575.79 234.32V228.32H581.79" stroke="#FF6633" stroke-width="2"/>
<path d="M593.14 228.32H791.83" stroke="#FF6633" stroke-width="2" stroke-dasharray="11.35 11.35"/>
<path d="M797.51 228.32H803.51V234.32" stroke="#FF6633" stroke-width="2"/>
<path d="M803.51 244.62V301.26" stroke="#FF6633" stroke-width="2" stroke-dasharray="10.3 10.3"/>
<path d="M803.51 306.41V312.41H797.51" stroke="#FF6633" stroke-width="2"/>
<path d="M786.15 312.41H587.46" stroke="#FF6633" stroke-width="2" stroke-dasharray="11.35 11.35"/>
<path d="M581.79 312.41H575.79V306.41" stroke="#FF6633" stroke-width="2"/>
<path d="M575.79 296.11V239.47" stroke="#FF6633" stroke-width="2" stroke-dasharray="10.3 10.3"/>
<path d="M1224.17 699.45V431.65" stroke="#004DC8" stroke-width="3" stroke-miterlimit="10"/>
<path d="M1236.44 441.59L1234.24 443.63L1224.17 432.8L1214.1 443.63L1211.9 441.59L1224.17 428.39L1236.44 441.59Z" fill="#004DC8"/>
<path d="M513.48 270.37H301.33" stroke="#9E9E9E" stroke-width="3" stroke-miterlimit="10"/>
<path d="M503.54 258.1L501.49 260.29L512.33 270.36L501.49 280.43L503.54 282.63L516.73 270.36L503.54 258.1Z" fill="#9E9E9E"/>
<text fill="black" style="white-space: pre" xml:space="preserve" font-family="Inter" font-size="22" font-weight="500" letter-spacing="0em"><tspan x="714.88" y="514.51">2. Sends HTTP logs</tspan></text>
<text fill="black" style="white-space: pre" xml:space="preserve" font-family="Inter" font-size="22" font-weight="500" letter-spacing="0em"><tspan x="1250" y="514.51">4. Hardens rules:&#10;</tspan><tspan x="1275" y="540">- Increases Bot sensitivity</tspan><tspan x="1275" y="565">- Creates rule to block a specific ASN</tspan></text>
<path fill-rule="evenodd" clip-rule="evenodd" d="M241.72 272.63H145.2C142.64 272.63 140.35 274.78 140.35 277.48V340.89H246.57V277.48C246.57 274.79 244.28 272.63 241.72 272.63Z" fill="white"/>
<path d="M247.32 341.64H139.6V277.48C139.6 274.45 142.16 271.88 145.2 271.88H241.72C244.75 271.88 247.32 274.44 247.32 277.48V341.64ZM141.1 340.14H245.82V277.48C245.82 275.26 243.94 273.38 241.72 273.38H145.2C142.98 273.38 141.1 275.26 141.1 277.48V340.14Z" fill="#B0291C"/>
<path d="M250.87 345.73H136.17C130.25 345.73 126.21 344.79 126.21 343.98V341.29C126.21 341.02 126.48 340.75 126.75 340.75H260.16C260.43 340.75 260.7 341.02 260.7 341.29V343.98C260.83 344.79 257.74 345.73 250.87 345.73Z" fill="white"/>
<path d="M250.87 346.48H136.17C135.07 346.48 125.46 346.41 125.46 343.98V341.29C125.46 340.6 126.06 340 126.75 340H260.16C260.85 340 261.45 340.6 261.45 341.29V343.94C261.48 344.24 261.38 344.53 261.16 344.78C259.86 346.32 253.53 346.48 250.87 346.48ZM126.96 343.78C127.64 344.23 130.85 344.98 136.17 344.98H250.87C257.08 344.98 259.46 344.21 259.95 343.87V341.5H126.96V343.78Z" fill="#3E74FF"/>
<path d="M260.64 341.29C260.64 341.02 260.37 340.75 260.1 340.75H126.69C126.42 340.75 126.15 341.02 126.15 341.29V343.85H260.77V341.29H260.64Z" fill="#FEEDEB"/>
<path d="M250.87 346.48H136.17C135.07 346.48 125.46 346.41 125.46 343.98V341.29C125.46 340.6 126.06 340 126.75 340H260.16C260.85 340 261.45 340.6 261.45 341.29V343.94C261.48 344.24 261.38 344.53 261.16 344.78C259.86 346.32 253.53 346.48 250.87 346.48ZM126.96 343.78C127.64 344.23 130.85 344.98 136.17 344.98H250.87C257.08 344.98 259.46 344.21 259.95 343.87V341.5H126.96V343.78Z" fill="#B0291C"/>
<path d="M242.19 280.17H144.72V336.98H242.19V280.17Z" fill="#FEEDEB"/>
<path fill-rule="evenodd" clip-rule="evenodd" d="M208.07 341.02V341.56C208.07 341.96 207.26 342.1 206.59 342.1H180.34C179.67 342.1 178.86 341.97 178.86 341.56V341.02" fill="#FC3D2E"/>
<path d="M193.71 333.75C207.73 333.75 219.1 322.38 219.1 308.36C219.1 294.34 207.73 282.97 193.71 282.97C179.69 282.97 168.32 294.34 168.32 308.36C168.32 322.38 179.69 333.75 193.71 333.75Z" fill="white" stroke="#B0291C" stroke-width="2" stroke-miterlimit="10"/>
<path d="M210.27 327.59C205.4 325 200 324.31 199 321.95C198.24 320.16 199 314.18 199 314.18L187.23 314.06C187.23 314.06 187.97 320.13 187.23 321.96C186.33 324.18 181.42 324.89 176.92 327.41" fill="#F2D6F4"/>
<path d="M210.27 327.59C205.4 325 200 324.31 199 321.95C198.24 320.16 199 314.18 199 314.18L187.23 314.06C187.23 314.06 187.97 320.13 187.23 321.96C186.33 324.18 181.42 324.89 176.92 327.41" stroke="#4D1470" stroke-width="1.06" stroke-miterlimit="10"/>
<path d="M203.37 309.61C205.78 310.81 207.63 312.92 208.54 315.49L211.4 324.82C211.56 325.32 211.74 325.57 211.77 325.63C211.77 325.63 211.78 325.64 211.78 325.69C211.78 325.75 211.78 325.87 211.74 326.1C211.74 326.1 211.74 326.12 211.73 326.14C211.72 326.17 211.69 326.2 211.66 326.25C211.59 326.34 211.49 326.45 211.35 326.57C211.07 326.81 210.7 327.07 210.32 327.3C209.94 327.53 209.57 327.74 209.28 327.89C209.14 327.96 209.02 328.02 208.94 328.06C208.9 328.08 208.87 328.1 208.85 328.11C208.84 328.11 208.83 328.11 208.83 328.12L208.75 328.16L208.69 328.22C208.3 328.61 207.66 329.19 207 329.67C206.67 329.91 206.35 330.12 206.06 330.27C205.76 330.42 205.56 330.48 205.44 330.48H205.33L193 333.28C192.77 333.28 192.11 333.2 191.16 333.04C190.16 332.87 188.85 332.6 187.44 332.22C184.59 331.44 181.33 330.2 179.05 328.34C178.62 327.99 177.79 327.35 177.08 326.8C176.72 326.52 176.39 326.27 176.15 326.09C176.09 326.05 176.04 326.01 176 325.97C176 325.94 176.01 325.91 176.02 325.87C176.07 325.62 176.16 325.26 176.3 324.83L179.14 315.52C179.6 314.22 180.3 313.03 181.21 312.01C182.1 311.01 183.17 310.2 184.36 309.62H203.39L203.37 309.61Z" fill="#FC3D2E" stroke="#B0291C"/>
<path d="M185.7 296.31C185.39 297.19 184.41 300.24 182.65 302.18L205.05 301.78C203.85 299.38 203.34 299.06 203.05 298.18C201.88 294.58 200.13 288.58 194.23 288.58C188.76 288.58 186.57 293.7 185.7 296.31Z" fill="#FC3D2E" stroke="#B0291C" stroke-miterlimit="10"/>
<path d="M206.64 303.84C206.64 304.95 206.33 306.58 204.9 308.17C204.9 308.17 204.893 308.18 204.88 308.2L195.07 319.41C194.87 319.64 194.62 319.76 194.37 319.77C194.32 319.77 194.28 319.77 194.23 319.74C194.03 319.71 193.85 319.6 193.69 319.41L188.79 313.96L183.7 308.31H183.68L183.66 308.28V308.25C182.14 306.65 181.83 304.99 181.83 303.85C181.84 302.82 182.08 301.84 182.51 301.05C183.71 298.73 186.63 296.58 194.23 296.58C202.58 296.58 204.83 298.76 206 301.11C206.4 301.9 206.62 302.86 206.63 303.85L206.64 303.84Z" fill="#B0291C" stroke="#B0291C" stroke-miterlimit="10"/>
<path d="M201.03 297.95V301.93C201.24 304.84 197.73 310.73 193.85 310.73C189.97 310.73 186.64 305.1 186.64 301.99V297.96C191.38 296.86 196.29 296.86 201.03 297.96V297.95Z" fill="#FCA39C" stroke="#B0291C"/>
<path d="M205.4 318.18H182.29C181.96 318.18 181.65 318.28 181.41 318.45C181.18 318.63 181.05 318.86 181.05 319.11V330.64L193.85 334.18L206.55 331.03L206.65 319.11C206.65 318.99 206.62 318.86 206.55 318.75C206.49 318.64 206.4 318.53 206.28 318.45C206.16 318.36 206.03 318.29 205.88 318.25C205.73 318.2 205.57 318.18 205.4 318.18Z" fill="#B0291C"/>
<path d="M193.71 333.75C207.73 333.75 219.1 322.38 219.1 308.36C219.1 294.34 207.73 282.97 193.71 282.97C179.69 282.97 168.32 294.34 168.32 308.36C168.32 322.38 179.69 333.75 193.71 333.75Z" stroke="#B0291C" stroke-width="2" stroke-miterlimit="10"/>
<text fill="black" style="white-space: pre" xml:space="preserve" font-family="Inter" font-size="30" font-weight="600" letter-spacing="0em"><tspan x="131.4" y="228.399">Attacker</tspan></text>
<text fill="black" style="white-space: pre" xml:space="preserve" font-family="Inter" font-size="30" font-weight="600" letter-spacing="0em"><tspan x="139" y="471.689">Endpoint</tspan></text>
<text fill="black" style="white-space: pre" xml:space="preserve" font-family="Inter" font-size="30" font-weight="600" letter-spacing="0em"><tspan x="662.45" y="386.309">Logs </tspan></text>
<text fill="black" style="white-space: pre" xml:space="preserve" font-family="Inter" font-size="30" font-weight="600" letter-spacing="0em"><tspan x="938.64" y="386.309">Access</tspan></text>
<text fill="black" style="white-space: pre" xml:space="preserve" font-family="Inter" font-size="30" font-weight="600" letter-spacing="0em"><tspan x="1224.17" y="386.309">API</tspan></text>
<path d="M806.76 270.37H1225.83V333.26" stroke="#9E9E9E" stroke-width="3" stroke-miterlimit="10"/>
<path d="M816.7 282.63L818.75 280.44L807.91 270.37L818.75 260.3L816.7 258.1L803.51 270.37L816.7 282.63Z" fill="#9E9E9E"/>
<text fill="black" style="white-space: pre" xml:space="preserve" font-family="Inter" font-size="12" font-weight="500" letter-spacing="0em"><tspan x="1712.84" y="1049.34"></tspan></text>
<text fill="black" style="white-space: pre" xml:space="preserve" font-family="Inter" font-size="32.05" font-weight="600" letter-spacing="0em"><tspan x="708.06" y="73.5344">6. Proactive application defense</tspan></text>
<path d="M1577.64 788.84H1493.56" stroke="#F26733" stroke-width="5" stroke-miterlimit="10"/>
<path d="M1493.56 892.65H1577.64" stroke="#239B7F" stroke-width="5" stroke-miterlimit="10"/>
<path d="M1493.56 839.01H1577.64" stroke="#004DC8" stroke-width="5" stroke-miterlimit="10"/>
<path d="M1394.28 592.72H516.73V960.13H1394.28V592.72Z" fill="white" stroke="#FC0000" stroke-width="2.54"/>
<path d="M784.11 981.74H1127.24V933.74H784.11V981.74Z" fill="white"/>
<path opacity="0.1" fill-rule="evenodd" clip-rule="evenodd" d="M1365.65 617.54V914.69H545.7V617.54H1365.65Z" fill="#FC0000"/>
<path d="M803.34 655.65H575.62V880.45H803.34V655.65Z" fill="white" stroke="#FC0000" stroke-width="2.78"/>
<path d="M1069.53 655.65H841.81V880.45H1069.53V655.65Z" fill="white" stroke="#FC0000" stroke-width="2.78"/>
<path d="M1335.72 655.65H1108V880.45H1335.72V655.65Z" fill="white" stroke="#FC0000" stroke-width="2.78"/>
<path fill-rule="evenodd" clip-rule="evenodd" d="M862.84 958.92V959.42C861.18 961.41 859.03 962.74 856.71 963.4C854.22 961.41 851.74 959.59 848.92 957.76C848.09 957.26 847.43 956.77 846.43 956.1C844.94 955.11 843.11 953.94 841.29 952.62V951.79C841.29 944.99 846.6 940.02 853.56 940.02C857.21 940.02 860.52 941.68 862.84 944.33V944.83L858.7 948.31H858.2C857.04 946.98 855.22 946.15 853.39 946.15C851.9 946.15 850.57 946.65 849.58 947.81C848.59 948.8 848.09 950.3 848.09 951.79C848.09 953.28 848.59 954.61 849.58 955.77C850.57 956.76 851.9 957.43 853.39 957.43C855.21 957.43 856.87 956.6 858.2 955.27H858.7L862.84 958.92ZM850.4 963.4C847.75 962.9 845.43 961.41 843.77 959.26C843.94 959.26 844.1 959.43 844.27 959.59C844.6 959.76 844.77 959.92 845.1 960.09C846.76 961.25 848.58 962.25 850.41 963.24V963.41L850.4 963.4Z" fill="black"/>
<path fill-rule="evenodd" clip-rule="evenodd" d="M886.71 957.43L887.7 961.91V962.41C886.71 963.07 885.71 963.4 884.55 963.4C881.73 963.4 880.24 962.74 878.25 959.75C877.26 958.26 875.43 955.11 873.77 955.11H873.11V963.07H866.15V940.36H876.76C882.89 940.36 886.21 943.34 886.21 947.99C886.21 950.81 884.55 953.3 881.9 954.29C882.56 954.79 883.23 955.45 883.72 956.11C884.22 956.77 884.55 957.6 885.38 957.6C885.71 957.6 886.04 957.6 886.37 957.43H886.7H886.71ZM878.92 948.15C878.92 948.81 878.75 949.31 878.26 949.81C877.76 950.31 877.1 950.47 876.44 950.47H873.12V945.83H876.44C877.1 945.83 877.77 946 878.26 946.49C878.76 946.99 878.92 947.65 878.92 948.15Z" fill="black"/>
<path fill-rule="evenodd" clip-rule="evenodd" d="M900.14 940.19C907.27 940.19 912.57 945.16 912.57 951.79C912.57 958.42 907.26 963.39 900.14 963.39C893.02 963.39 887.71 958.42 887.71 951.79C887.71 945.16 893.02 940.19 900.14 940.19ZM902.96 956.77C904.62 955.78 905.78 953.95 905.61 951.8C905.61 949.81 904.62 947.99 902.96 946.83C901.3 945.84 899.15 945.84 897.32 946.83C895.66 947.82 894.5 949.65 894.67 951.8C894.67 953.79 895.66 955.61 897.32 956.77C898.98 957.76 901.13 957.76 902.96 956.77Z" fill="black"/>
<path d="M945.4 940.19H939.1L935.29 953.12L931.15 940.19H927.17L923.03 952.96L919.22 940.19H912.92L912.59 940.69L920.71 963.4H924.69L929.17 950.8L933.81 963.4H937.79L945.91 940.69L945.58 940.19H945.41H945.4Z" fill="black"/>
<path fill-rule="evenodd" clip-rule="evenodd" d="M959.16 940.19C966.29 940.19 970.6 944.83 970.6 951.79C970.6 958.75 966.29 963.39 959.16 963.39H949.05V940.18H959.16V940.19ZM958.82 957.76C961.64 957.76 963.79 955.6 963.79 951.79C963.79 947.98 961.63 945.82 958.82 945.82H955.5V957.59H958.82V957.76Z" fill="black"/>
<path d="M1008.23 945.99H1015.36V940.35H993.81V945.99H1000.94V963.56H1008.07V945.99H1008.24H1008.23Z" fill="black"/>
<path fill-rule="evenodd" clip-rule="evenodd" d="M1027.29 940.19C1033.26 940.19 1036.41 943.17 1036.41 947.98C1036.41 950.96 1034.75 953.12 1032.27 954.28L1036.91 962.9L1036.58 963.4H1029.78L1025.47 955.28H1023.81V963.4H1017.01V940.19H1027.29ZM1029.45 948.31C1029.45 948.97 1029.28 949.64 1028.79 949.97C1028.29 950.47 1027.63 950.63 1027.13 950.63H1023.98V945.99H1027.13C1027.79 945.99 1028.46 946.16 1028.79 946.65C1029.29 947.15 1029.45 947.81 1029.45 948.47V948.3V948.31Z" fill="black"/>
<path d="M1040.22 940.19H1046.85V963.4H1040.22V940.19Z" fill="black"/>
<path d="M1063.27 950.64L1071.06 940.86L1070.73 940.36H1063.44L1056.97 948.65V940.36H1050.01V963.57H1056.97V956.44L1058.3 954.95L1064.1 963.57H1071.39L1071.72 963.07L1063.27 950.8V950.63V950.64Z" fill="black"/>
<path d="M1091.45 945.99V940.35H1075.04V963.56H1091.62V957.92H1081.67V954.77H1089.13V949.46H1081.67V946.31H1091.62L1091.45 945.98V945.99Z" fill="black"/>
<path d="M982.53 963.4C987.67 963.4 992.15 960.91 992.15 956.27C992.15 951.63 987.67 949.97 983.7 948.81C982.21 948.31 980.55 947.82 980.55 946.82C980.55 945.82 981.38 945.49 982.87 945.49C985.19 945.49 987.18 946.82 988.18 947.81H988.68L992 944V943.5C990.18 941.68 986.69 940.18 982.72 940.18C978.75 940.18 973.44 943 973.44 947.14C973.44 951.28 977.58 953.44 981.23 954.43C983.55 955.09 985.04 955.09 985.04 956.42C985.04 957.75 983.88 957.75 982.22 957.75C980.56 957.75 977.41 956.42 976.09 955.26H975.59L972.27 959.24V959.74C974.43 962.06 978.07 963.55 982.55 963.55" fill="black"/>
<path d="M866.15 984.95C864.49 981.3 861.18 976.5 848.25 969.7C842.28 966.38 832.17 961.41 823.05 951.8C823.88 955.28 828.19 962.91 846.43 972.36C851.4 975.01 860.02 977.67 866.16 984.96" fill="black"/>
<path d="M864.49 978.32C863 973.84 860.35 968.21 847.41 959.92C841.11 955.78 831.83 950.47 819.72 936.88C820.55 940.53 824.36 949.98 843.76 962.24C850.06 966.72 858.35 969.37 864.48 978.32" fill="black"/>
<mask id="mask1_1_1955" style="mask-type:luminance" maskUnits="userSpaceOnUse" x="1191" y="680" width="62" height="62">
<path d="M1252.31 680.52H1191.42V741.41H1252.31V680.52Z" fill="white"/>
</mask>
<g mask="url(#mask1_1_1955)">
<path d="M1243.51 718.15V703.73C1244.26 703.58 1244.96 703.26 1245.56 702.79C1246.16 702.32 1246.63 701.71 1246.95 701.02C1247.27 700.33 1247.41 699.57 1247.38 698.81C1247.34 698.05 1247.13 697.31 1246.75 696.65C1246.37 695.99 1245.84 695.43 1245.2 695.02C1244.56 694.61 1243.83 694.35 1243.07 694.28C1242.31 694.21 1241.55 694.31 1240.84 694.59C1240.13 694.87 1239.5 695.32 1239 695.89L1226.39 688.64C1226.56 688.16 1226.65 687.65 1226.66 687.14C1226.66 686.51 1226.54 685.89 1226.3 685.31C1226.06 684.73 1225.71 684.2 1225.26 683.76C1224.82 683.32 1224.29 682.96 1223.71 682.72C1223.13 682.48 1222.51 682.36 1221.88 682.36C1221.25 682.36 1220.63 682.48 1220.05 682.72C1219.47 682.96 1218.94 683.31 1218.5 683.76C1218.06 684.2 1217.7 684.73 1217.46 685.31C1217.22 685.89 1217.1 686.51 1217.1 687.14C1217.1 687.65 1217.2 688.16 1217.37 688.64L1204.76 695.89C1204.32 695.38 1203.77 694.97 1203.15 694.68C1202.53 694.4 1201.86 694.25 1201.18 694.25C1199.99 694.25 1198.85 694.69 1197.97 695.49C1197.09 696.29 1196.54 697.38 1196.42 698.57C1196.3 699.75 1196.63 700.94 1197.33 701.89C1198.03 702.85 1199.07 703.51 1200.23 703.75V718.17C1199.48 718.32 1198.78 718.64 1198.18 719.11C1197.58 719.58 1197.1 720.19 1196.79 720.89C1196.47 721.58 1196.33 722.34 1196.36 723.11C1196.4 723.87 1196.61 724.61 1197 725.28C1197.38 725.94 1197.91 726.5 1198.56 726.91C1199.2 727.32 1199.93 727.58 1200.69 727.65C1201.45 727.72 1202.22 727.61 1202.92 727.33C1203.63 727.05 1204.26 726.6 1204.76 726.02L1217.37 733.27C1217.2 733.75 1217.11 734.26 1217.1 734.77C1217.1 735.4 1217.22 736.02 1217.46 736.6C1217.7 737.18 1218.05 737.71 1218.5 738.15C1218.94 738.59 1219.47 738.95 1220.05 739.19C1220.63 739.43 1221.25 739.55 1221.88 739.55C1222.51 739.55 1223.13 739.43 1223.71 739.19C1224.29 738.95 1224.82 738.6 1225.26 738.15C1225.7 737.71 1226.06 737.18 1226.3 736.6C1226.54 736.02 1226.66 735.4 1226.66 734.77C1226.66 734.26 1226.56 733.75 1226.39 733.27L1239 726.02C1239.5 726.59 1240.13 727.03 1240.84 727.31C1241.55 727.59 1242.31 727.69 1243.06 727.62C1243.81 727.54 1244.54 727.29 1245.18 726.88C1245.82 726.47 1246.35 725.91 1246.73 725.25C1247.11 724.59 1247.33 723.86 1247.36 723.1C1247.4 722.34 1247.25 721.59 1246.94 720.9C1246.63 720.21 1246.16 719.6 1245.56 719.13C1244.97 718.66 1244.27 718.33 1243.53 718.18L1243.51 718.15ZM1242.56 696.14C1243.13 696.14 1243.69 696.31 1244.17 696.62C1244.65 696.94 1245.02 697.39 1245.24 697.92C1245.46 698.45 1245.52 699.03 1245.41 699.59C1245.3 700.15 1245.02 700.67 1244.62 701.07C1244.22 701.48 1243.7 701.75 1243.14 701.86C1242.58 701.97 1242 701.92 1241.47 701.7C1240.94 701.48 1240.49 701.11 1240.17 700.63C1239.85 700.15 1239.68 699.59 1239.68 699.02C1239.68 698.25 1239.98 697.52 1240.52 696.98C1241.06 696.44 1241.79 696.13 1242.56 696.13V696.14ZM1221.86 684.24C1222.43 684.24 1222.99 684.41 1223.47 684.72C1223.95 685.04 1224.32 685.49 1224.54 686.02C1224.76 686.55 1224.82 687.13 1224.71 687.69C1224.6 688.25 1224.32 688.77 1223.92 689.17C1223.52 689.58 1223 689.85 1222.44 689.96C1221.88 690.07 1221.3 690.02 1220.77 689.8C1220.24 689.58 1219.79 689.21 1219.47 688.73C1219.15 688.25 1218.98 687.69 1218.98 687.12C1218.98 686.35 1219.28 685.62 1219.82 685.08C1220.36 684.54 1221.09 684.23 1221.86 684.23V684.24ZM1198.27 699.03C1198.27 698.46 1198.44 697.9 1198.76 697.43C1199.08 696.96 1199.53 696.59 1200.06 696.37C1200.59 696.15 1201.17 696.1 1201.72 696.21C1202.28 696.32 1202.79 696.6 1203.19 697C1203.59 697.4 1203.87 697.92 1203.98 698.48C1204.09 699.04 1204.03 699.62 1203.81 700.14C1203.59 700.67 1203.22 701.12 1202.75 701.43C1202.28 701.75 1201.72 701.92 1201.15 701.92C1200.38 701.92 1199.65 701.61 1199.11 701.07C1198.57 700.53 1198.27 699.79 1198.27 699.03ZM1201.15 725.74C1200.58 725.74 1200.02 725.57 1199.54 725.26C1199.06 724.94 1198.69 724.49 1198.47 723.96C1198.25 723.43 1198.19 722.85 1198.3 722.29C1198.41 721.73 1198.69 721.21 1199.09 720.81C1199.49 720.4 1200.01 720.13 1200.57 720.02C1201.13 719.91 1201.71 719.96 1202.24 720.18C1202.77 720.4 1203.22 720.77 1203.54 721.25C1203.86 721.73 1204.03 722.29 1204.03 722.86C1204.03 723.63 1203.73 724.36 1203.19 724.9C1202.65 725.44 1201.92 725.75 1201.15 725.75V725.74ZM1221.86 737.65C1221.29 737.65 1220.73 737.48 1220.25 737.17C1219.77 736.85 1219.4 736.4 1219.18 735.87C1218.96 735.34 1218.9 734.76 1219.01 734.2C1219.12 733.64 1219.4 733.12 1219.8 732.72C1220.2 732.31 1220.72 732.04 1221.28 731.93C1221.84 731.82 1222.42 731.87 1222.95 732.09C1223.48 732.31 1223.93 732.68 1224.25 733.16C1224.57 733.64 1224.74 734.2 1224.74 734.77C1224.74 735.54 1224.44 736.27 1223.9 736.81C1223.36 737.35 1222.63 737.66 1221.86 737.66V737.65ZM1225.42 731.6C1224.98 731.09 1224.43 730.67 1223.81 730.39C1223.19 730.11 1222.52 729.96 1221.84 729.96C1221.16 729.96 1220.49 730.11 1219.87 730.39C1219.25 730.67 1218.7 731.08 1218.26 731.6L1205.65 724.35C1205.82 723.87 1205.91 723.36 1205.92 722.85C1205.92 721.74 1205.54 720.67 1204.84 719.82C1204.14 718.96 1203.17 718.37 1202.09 718.15V703.73C1203.17 703.51 1204.15 702.92 1204.84 702.06C1205.54 701.2 1205.92 700.13 1205.92 699.03C1205.92 698.52 1205.82 698.01 1205.65 697.53L1218.26 690.28C1218.7 690.79 1219.25 691.2 1219.87 691.49C1220.49 691.77 1221.16 691.92 1221.84 691.92C1222.52 691.92 1223.19 691.77 1223.8 691.49C1224.42 691.21 1224.97 690.8 1225.41 690.29L1238.02 697.54C1237.85 698.02 1237.76 698.53 1237.75 699.04C1237.75 700.15 1238.13 701.22 1238.83 702.07C1239.53 702.93 1240.5 703.52 1241.58 703.74V718.16C1240.5 718.38 1239.52 718.97 1238.83 719.83C1238.13 720.69 1237.75 721.76 1237.75 722.86C1237.75 723.37 1237.85 723.88 1238.02 724.36L1225.41 731.61L1225.42 731.6ZM1242.56 725.74C1241.99 725.74 1241.43 725.57 1240.95 725.26C1240.47 724.94 1240.1 724.49 1239.88 723.96C1239.66 723.43 1239.6 722.85 1239.71 722.29C1239.82 721.73 1240.1 721.21 1240.5 720.81C1240.9 720.4 1241.42 720.13 1241.98 720.02C1242.54 719.91 1243.12 719.96 1243.65 720.18C1244.18 720.4 1244.63 720.77 1244.95 721.25C1245.27 721.73 1245.44 722.29 1245.44 722.86C1245.44 723.63 1245.14 724.36 1244.6 724.9C1244.06 725.44 1243.33 725.75 1242.56 725.75V725.74Z" fill="#EC0000"/>
<path d="M1233.45 712.13C1232.91 712.13 1232.38 712.3 1231.94 712.6C1231.49 712.91 1231.15 713.34 1230.96 713.85H1214.48V704.16H1220.9V707.07C1220.9 707.32 1221 707.56 1221.18 707.74C1221.36 707.92 1221.6 708.02 1221.85 708.02H1225.46C1225.68 708.6 1226.1 709.09 1226.65 709.4C1227.19 709.71 1227.83 709.81 1228.44 709.7C1229.05 709.59 1229.61 709.26 1230.01 708.78C1230.41 708.3 1230.63 707.69 1230.63 707.07C1230.63 706.45 1230.41 705.84 1230.01 705.36C1229.61 704.88 1229.05 704.55 1228.44 704.44C1227.83 704.33 1227.19 704.44 1226.65 704.74C1226.11 705.05 1225.69 705.53 1225.46 706.12H1222.81V700.29H1225.46C1225.68 700.87 1226.1 701.36 1226.65 701.67C1227.19 701.98 1227.83 702.08 1228.44 701.97C1229.05 701.86 1229.61 701.53 1230.01 701.05C1230.41 700.57 1230.63 699.96 1230.63 699.34C1230.63 698.72 1230.41 698.11 1230.01 697.63C1229.61 697.15 1229.05 696.82 1228.44 696.71C1227.83 696.6 1227.19 696.71 1226.65 697.01C1226.11 697.32 1225.69 697.8 1225.46 698.39H1221.85C1221.6 698.39 1221.36 698.49 1221.18 698.67C1221 698.85 1220.9 699.09 1220.9 699.34V702.25H1213.53C1213.28 702.25 1213.04 702.35 1212.86 702.53C1212.68 702.71 1212.58 702.95 1212.58 703.2V713.85H1208.47C1208.22 713.85 1207.98 713.95 1207.8 714.13C1207.62 714.31 1207.52 714.55 1207.52 714.8C1207.52 715.05 1207.62 715.29 1207.8 715.47C1207.98 715.65 1208.22 715.75 1208.47 715.75H1212.58V722.53C1212.58 722.78 1212.68 723.02 1212.86 723.2C1213.04 723.38 1213.28 723.48 1213.53 723.48H1225.46C1225.68 724.06 1226.1 724.55 1226.65 724.86C1227.19 725.17 1227.83 725.27 1228.44 725.16C1229.05 725.05 1229.61 724.72 1230.01 724.24C1230.41 723.76 1230.63 723.15 1230.63 722.53C1230.63 721.91 1230.41 721.3 1230.01 720.82C1229.61 720.34 1229.05 720.01 1228.44 719.9C1227.83 719.79 1227.19 719.9 1226.65 720.2C1226.11 720.51 1225.69 720.99 1225.46 721.58H1214.48V715.75H1230.96C1231.13 716.21 1231.43 716.6 1231.81 716.9C1232.19 717.2 1232.65 717.39 1233.14 717.45C1233.62 717.51 1234.11 717.43 1234.56 717.23C1235 717.03 1235.38 716.71 1235.66 716.31C1235.94 715.91 1236.1 715.44 1236.13 714.95C1236.16 714.46 1236.05 713.98 1235.83 713.55C1235.6 713.12 1235.26 712.76 1234.85 712.51C1234.43 712.26 1233.96 712.13 1233.47 712.13H1233.45Z" fill="#EC0000"/>
</g>
<mask id="mask2_1_1955" style="mask-type:luminance" maskUnits="userSpaceOnUse" x="921" y="678" width="65" height="65">
<path d="M985.51 678.96H921.51V742.96H985.51V678.96Z" fill="white"/>
</mask>
<g mask="url(#mask2_1_1955)">
<path d="M982.51 727.55L982.62 699.07L982.59 686.96H926.87V703.34H925.77C924.52 703.34 923.51 704.35 923.51 705.6V730.28C923.51 731.53 924.52 732.54 925.77 732.54H938.51C939.76 732.54 940.77 731.53 940.77 730.28V727.54H948.65V734H941.34C940.79 734 940.34 734.45 940.34 735C940.34 735.55 940.79 736 941.34 736H968.16C968.71 736 969.16 735.55 969.16 735C969.16 734.45 968.71 734 968.16 734H960.85V727.54H982.51V727.55ZM938.78 730.28C938.78 730.42 938.66 730.54 938.52 730.54H925.78C925.64 730.54 925.52 730.42 925.52 730.28V727.38H938.78V730.28ZM938.78 725.38H925.52V710.95H938.78V725.38ZM938.78 708.95H925.52V705.6C925.52 705.46 925.64 705.34 925.78 705.34H938.52C938.66 705.34 938.78 705.46 938.78 705.6V708.95ZM958.85 734H950.65V727.54H958.85V734ZM943.73 725.55H940.78V705.6C940.78 704.35 939.77 703.34 938.52 703.34H928.87V688.96H980.59L980.61 699.07L980.5 725.55H943.73Z" fill="#EC0000"/>
<path d="M946.13 701.23V705.74C946.13 711.15 949.36 715.96 954.37 718L954.75 718.15L955.13 718C960.14 715.96 963.37 711.14 963.37 705.74V701.23L954.75 697.65L946.13 701.23ZM961.37 705.75C961.37 710.2 958.79 714.18 954.75 716C950.72 714.18 948.13 710.2 948.13 705.75V702.57L954.75 699.82L961.37 702.57V705.75Z" fill="#EC0000"/>
<path d="M934.68 706.1H929.62C929.07 706.1 928.62 706.55 928.62 707.1V707.3C928.62 707.85 929.07 708.3 929.62 708.3H934.68C935.23 708.3 935.68 707.85 935.68 707.3V707.1C935.68 706.55 935.23 706.1 934.68 706.1Z" fill="#EC0000"/>
</g>
<mask id="mask3_1_1955" style="mask-type:luminance" maskUnits="userSpaceOnUse" x="657" y="682" width="59" height="58">
<path d="M715.88 682.65H657.57V739.49H715.88V682.65Z" fill="white"/>
</mask>
<g mask="url(#mask3_1_1955)">
<path d="M686.88 723.94L675.73 717.5V704.63L686.88 698.19L698.03 704.63V717.5L686.88 723.94ZM677.62 716.41L686.88 721.75L696.14 716.41V705.72L686.88 700.38L677.62 705.72V716.41Z" fill="#EC0000"/>
<path d="M708.34 718.15V714.54H706.45V718.15C704.22 718.59 702.54 720.56 702.54 722.91C702.54 723.45 702.65 723.97 702.82 724.46L690.59 731.52C689.7 730.45 688.38 729.76 686.88 729.76C685.38 729.76 684.06 730.45 683.17 731.52L671.31 724.67L670.96 724.47C671.12 723.99 671.22 723.49 671.22 722.96C671.22 720.6 669.53 718.64 667.31 718.19V714.54H665.42V718.19C663.19 718.63 661.51 720.6 661.51 722.96C661.51 725.64 663.69 727.82 666.37 727.82C667.84 727.82 669.14 727.15 670.03 726.12L670.3 726.27L682.27 733.18C682.13 733.64 682.03 734.12 682.03 734.62C682.03 737.3 684.21 739.48 686.89 739.48C689.57 739.48 691.75 737.3 691.75 734.62C691.75 734.11 691.65 733.64 691.51 733.18L703.77 726.1C704.66 727.12 705.95 727.77 707.41 727.77C710.09 727.77 712.27 725.59 712.27 722.91C712.27 720.55 710.58 718.59 708.36 718.15M666.36 725.93C664.72 725.93 663.39 724.6 663.39 722.96C663.39 721.32 664.72 719.99 666.36 719.99C668 719.99 669.33 721.32 669.33 722.96C669.33 724.6 668 725.93 666.36 725.93ZM686.88 737.6C685.24 737.6 683.91 736.27 683.91 734.63C683.91 734.47 683.93 734.32 683.96 734.17C684.06 733.51 684.38 732.93 684.84 732.49C685.37 731.98 686.09 731.66 686.88 731.66C687.67 731.66 688.39 731.98 688.92 732.49C689.38 732.93 689.69 733.51 689.8 734.17C689.82 734.32 689.85 734.47 689.85 734.63C689.85 736.27 688.52 737.6 686.88 737.6ZM707.4 725.89C706.65 725.89 705.97 725.6 705.45 725.14C704.97 724.72 704.62 724.15 704.49 723.51C704.45 723.32 704.43 723.13 704.43 722.93C704.43 721.63 705.28 720.53 706.45 720.13C706.75 720.03 707.06 719.96 707.4 719.96C707.74 719.96 708.05 720.03 708.35 720.13C709.52 720.53 710.37 721.62 710.37 722.93C710.37 724.57 709.04 725.9 707.4 725.9" fill="#EC0000"/>
<path d="M707.4 694.39C705.96 694.39 704.67 695.03 703.78 696.04L691.5 688.95C691.64 688.49 691.74 688.01 691.74 687.51C691.74 684.83 689.56 682.65 686.88 682.65C684.2 682.65 682.02 684.83 682.02 687.51C682.02 688.02 682.12 688.49 682.26 688.95L669.98 696.04C669.09 695.04 667.81 694.39 666.36 694.39C663.68 694.39 661.5 696.57 661.5 699.25C661.5 701.61 663.19 703.57 665.41 704.01V707.58H667.3V704.01C669.53 703.57 671.21 701.6 671.21 699.25C671.21 698.69 671.1 698.17 670.92 697.67L683.15 690.61C684.04 691.68 685.37 692.37 686.86 692.37C688.35 692.37 689.68 691.68 690.57 690.61L702.81 697.67C702.64 698.17 702.52 698.69 702.52 699.25C702.52 701.61 704.21 703.57 706.43 704.01V707.58H708.32V704.01C710.55 703.57 712.23 701.6 712.23 699.25C712.23 696.57 710.05 694.39 707.37 694.39M667.31 702.05C667.01 702.15 666.7 702.22 666.36 702.22C666.02 702.22 665.71 702.15 665.41 702.05C664.24 701.65 663.39 700.56 663.39 699.25C663.39 697.61 664.72 696.28 666.36 696.28C667.1 696.28 667.77 696.56 668.29 697.01C668.77 697.43 669.13 697.99 669.26 698.63C669.3 698.83 669.32 699.03 669.32 699.24C669.32 700.54 668.47 701.64 667.3 702.04L667.31 702.05ZM689.8 687.97C689.7 688.63 689.38 689.21 688.92 689.65C688.39 690.16 687.67 690.48 686.88 690.48C686.09 690.48 685.37 690.16 684.84 689.65C684.38 689.21 684.07 688.63 683.96 687.97C683.94 687.82 683.91 687.67 683.91 687.51C683.91 685.87 685.24 684.54 686.88 684.54C688.52 684.54 689.85 685.87 689.85 687.51C689.85 687.67 689.83 687.82 689.8 687.97ZM708.34 702.05C708.04 702.15 707.73 702.22 707.39 702.22C707.05 702.22 706.74 702.15 706.44 702.05C705.27 701.65 704.42 700.56 704.42 699.25C704.42 699.04 704.44 698.83 704.49 698.64C704.63 697.99 704.98 697.43 705.46 697.02C705.98 696.57 706.65 696.29 707.39 696.29C709.03 696.29 710.36 697.62 710.36 699.26C710.36 700.56 709.51 701.66 708.34 702.06" fill="#EC0000"/>
<path d="M675.73 706.64H657.57V708.53H675.73V706.64Z" fill="#EC0000"/>
<path d="M675.73 710.12H657.57V712.01H675.73V710.12Z" fill="#EC0000"/>
<path d="M675.73 713.6H657.57V715.49H675.73V713.6Z" fill="#EC0000"/>
<path d="M715.87 706.64H697.71V708.53H715.87V706.64Z" fill="#EC0000"/>
<path d="M715.87 710.12H697.71V712.01H715.87V710.12Z" fill="#EC0000"/>
<path d="M715.87 713.6H697.71V715.49H715.87V713.6Z" fill="#EC0000"/>
</g>
<path d="M689.43 428.39V643.55" stroke="#F26733" stroke-width="3" stroke-miterlimit="10"/>
<path d="M677.16 633.61L679.36 631.56L689.43 642.39L699.5 631.56L701.69 633.61L689.43 646.8L677.16 633.61Z" fill="#F26733"/>
<path d="M1224.77 646.8V432.16" stroke="#004DC8" stroke-width="3" stroke-miterlimit="10"/>
<path d="M1237.04 442.1L1234.85 444.14L1224.78 433.31L1214.7 444.14L1212.51 442.1L1224.78 428.9L1237.04 442.1Z" fill="#004DC8"/>
<text fill="black" style="white-space: pre" xml:space="preserve" font-family="Inter" font-size="16.5" font-weight="bold" letter-spacing="0em"><tspan x="170.043" y="374">User</tspan></text>
<text fill="black" style="white-space: pre" xml:space="preserve" font-family="Inter" font-size="32.05" font-weight="600" letter-spacing="0em"><tspan x="638.545" y="781.155">Falcon&#10;</tspan><tspan x="622.348" y="820.155">Next-Gen&#10;</tspan><tspan x="650.939" y="859.155">SIEM</tspan></text>
<text fill="black" style="white-space: pre" xml:space="preserve" font-family="Inter" font-size="32.05" font-weight="600" letter-spacing="0em"><tspan x="905" y="781.155">Falcon&#10;</tspan><tspan x="905" y="820.155">device&#10;</tspan><tspan x="905" y="859.155">posture</tspan></text>
<text fill="black" style="white-space: pre" xml:space="preserve" font-family="Inter" font-size="32.05" font-weight="600" letter-spacing="0em"><tspan x="1170.92" y="781.155">Fusion&#10;</tspan><tspan x="1177.79" y="820.155">SOAR</tspan></text>
<text fill="black" style="white-space: pre" xml:space="preserve" font-family="Inter" font-size="28" font-weight="600" letter-spacing="0em"><tspan x="611.238" y="264.182">WAF rules:&#10;</tspan><tspan x="650.08" y="298.182">Block</tspan></text>
<text fill="black" style="white-space: pre" xml:space="preserve" font-family="Inter" font-size="22" font-weight="500" letter-spacing="0em"><tspan x="346" y="307.5">1. Inspects and&#10;</tspan><tspan x="346" y="334.5">blocks attacks</tspan></text>
<text fill="black" style="white-space: pre" xml:space="preserve" font-family="Inter" font-size="22" font-weight="500" letter-spacing="0em"><tspan x="686" y="1017.5">3. Next-Gen SIEM correlates with threat intel data:&#10;</tspan><tspan x="708" y="1044.5">Detects known targeted ransomware group and triggers Fusion SOAR</tspan></text>
<text fill="black" style="white-space: pre" xml:space="preserve" font-family="Inter" font-size="20" letter-spacing="0em"><tspan x="1604" y="791.273">Logs [via Logpush]</tspan></text>
<text fill="black" style="white-space: pre" xml:space="preserve" font-family="Inter" font-size="20" letter-spacing="0em"><tspan x="1604" y="844.273">Automation [via API]</tspan></text>
<text fill="black" style="white-space: pre" xml:space="preserve" font-family="Inter" font-size="20" letter-spacing="0em"><tspan x="1604" y="898.273">Device posture &#10;</tspan><tspan x="1604" y="922.273">[service-to-service API]</tspan></text>
</g>
<defs>
<clipPath id="clip0_1_1955">
<rect width="1920" height="1080" fill="white"/>
</clipPath>
</defs>
</svg>
