<svg width="1920" height="1080" viewBox="0 0 1920 1080" fill="none" xmlns="http://www.w3.org/2000/svg">
<g clip-path="url(#clip0_1_871)">
<path d="M1920 0H0V1080H1920V0Z" fill="white"/>
<path d="M301.94 180.17H86.2V400.42H301.94V180.17Z" fill="white" stroke="#B0291C" stroke-width="2" stroke-miterlimit="10"/>
<path d="M1394.89 167.42H517.34V472.26H1394.89V167.42Z" fill="white" stroke="#F6821F" stroke-width="2.31"/>
<path d="M1159.2 146.88H753.03V194.88H1159.2V146.88Z" fill="white"/>
<path d="M858.18 179.59L858.75 177.6C859.43 175.24 859.18 173.04 858.03 171.45C856.97 169.98 855.21 169.1 853.07 169L812.56 168.49C812.28 168.48 812.06 168.35 811.92 168.16C811.78 167.95 811.75 167.69 811.84 167.42C811.98 167.02 812.37 166.73 812.78 166.7L853.68 166.19C858.53 165.97 863.78 162.04 865.63 157.23L867.96 151.13C868.03 150.96 868.06 150.78 868.06 150.62C868.06 150.52 868.05 150.43 868.03 150.33C865.35 138.41 854.72 129.5 842.01 129.5C830.31 129.5 820.36 137.06 816.79 147.56C814.48 145.84 811.54 144.92 808.38 145.23C802.77 145.79 798.25 150.32 797.68 155.93C797.53 157.39 797.65 158.79 797.99 160.11C788.82 160.4 781.46 167.92 781.46 177.16C781.46 177.99 781.53 178.81 781.64 179.62C781.7 180.01 782.03 180.3 782.42 180.3H857.22C857.22 180.3 857.23 180.31 857.25 180.31C857.68 180.3 858.06 180.02 858.18 179.6V179.59Z" fill="#F78100"/>
<path d="M871.67 151.56C871.29 151.56 870.92 151.57 870.54 151.59C870.48 151.59 870.41 151.6 870.36 151.63C870.17 151.7 870.01 151.85 869.96 152.06L868.38 157.55C867.7 159.91 867.95 162.09 869.1 163.7C870.16 165.19 871.92 166.05 874.06 166.15L882.7 166.66C882.95 166.67 883.17 166.8 883.31 166.99C883.45 167.2 883.49 167.46 883.41 167.73C883.27 168.13 882.88 168.42 882.47 168.45L873.49 168.96C868.61 169.18 863.36 173.11 861.53 177.92L860.88 179.62C860.77 179.93 860.98 180.26 861.31 180.27H892.22C892.6 180.27 892.91 180.03 893.01 179.67C893.55 177.77 893.83 175.75 893.83 173.67C893.82 161.46 883.91 151.55 871.67 151.55V151.56Z" fill="#FBAC42"/>
<path d="M927.88 161.48H933V175.46H941.93V179.93H927.88V161.48Z" fill="black"/>
<path d="M947.24 170.76V170.7C947.24 165.41 951.51 161.1 957.2 161.1C962.89 161.1 967.11 165.35 967.11 170.65V170.71C967.11 176 962.84 180.31 957.15 180.31C951.46 180.31 947.24 176.06 947.24 170.76ZM961.89 170.76V170.7C961.89 168.03 959.97 165.71 957.15 165.71C954.33 165.71 952.48 167.97 952.48 170.64V170.7C952.48 173.37 954.4 175.69 957.2 175.69C960 175.69 961.88 173.43 961.88 170.76" fill="black"/>
<path d="M973.37 171.85V161.49H978.57V171.74C978.57 174.41 979.92 175.67 981.97 175.67C984.02 175.67 985.37 174.46 985.37 171.88V161.49H990.57V171.72C990.57 177.68 987.17 180.29 981.93 180.29C976.66 180.29 973.37 177.62 973.37 171.86" fill="black"/>
<path d="M998.38 161.48H1005.49C1012.08 161.48 1015.91 165.27 1015.91 170.59V170.65C1015.91 175.97 1012.03 179.93 1005.39 179.93H998.37V161.48H998.38ZM1005.59 175.41C1008.65 175.41 1010.68 173.73 1010.68 170.74V170.68C1010.68 167.73 1008.65 166.01 1005.59 166.01H1003.51V175.4H1005.59V175.41Z" fill="black"/>
<path d="M1023.35 161.48H1038.12V165.97H1028.46V169.1H1037.2V173.35H1028.46V179.93H1023.35V161.48Z" fill="black"/>
<path d="M1045.23 161.48H1050.34V175.46H1059.29V179.93H1045.23V161.48Z" fill="black"/>
<path d="M1072.66 161.34H1077.59L1085.45 179.93H1079.96L1078.61 176.64H1071.5L1070.18 179.93H1064.8L1072.65 161.34H1072.66ZM1077.13 172.67L1075.07 167.42L1072.99 172.67H1077.13Z" fill="black"/>
<path d="M1092.02 161.48H1100.75C1103.57 161.48 1105.52 162.22 1106.77 163.48C1107.85 164.54 1108.41 165.95 1108.41 167.77V167.83C1108.41 170.65 1106.91 172.53 1104.62 173.5L1109.02 179.93H1103.1L1099.39 174.34H1097.15V179.93H1092.04V161.48H1092.03H1092.02ZM1100.51 170.33C1102.25 170.33 1103.25 169.48 1103.25 168.15V168.09C1103.25 166.65 1102.19 165.91 1100.49 165.91H1097.14V170.33H1100.52H1100.51Z" fill="black"/>
<path d="M916.68 172.93C915.96 174.54 914.46 175.69 912.46 175.69C909.67 175.69 907.74 173.37 907.74 170.7V170.64C907.74 167.97 909.62 165.71 912.41 165.71C914.52 165.71 916.12 167 916.8 168.77H922.19C921.33 164.38 917.47 161.1 912.46 161.1C906.76 161.1 902.5 165.39 902.5 170.7V170.76C902.5 176.05 906.72 180.31 912.41 180.31C917.29 180.31 921.09 177.16 922.09 172.93H916.69H916.68Z" fill="black"/>
<path d="M1115.77 161.47H1130.63V165.83H1120.84V168.62H1129.72V172.67H1120.84V175.6H1130.77V179.96H1115.77V161.47Z" fill="black"/>
<path fill-rule="evenodd" clip-rule="evenodd" d="M1366.09 211.34V456.35H546.14V211.34H1366.09Z" fill="#FFF1DF"/>
<path d="M803.89 334.15H576.17V418.24H803.89V334.15Z" fill="white" stroke="#FF6633" stroke-width="2"/>
<path d="M624.62 358.73L622.55 360.85L635.84 373.88H602.31V376.85H635.84L622.55 389.88L624.62 392.01L641.61 375.37L624.62 358.73Z" fill="#FF6633"/>
<path d="M1069.97 334.15H842.25V418.24H1069.97V334.15Z" fill="white" stroke="#FF6633" stroke-width="2"/>
<mask id="mask0_1_871" style="mask-type:luminance" maskUnits="userSpaceOnUse" x="874" y="350" width="52" height="51">
<path d="M925.05 350.32H874.95V400.42H925.05V350.32Z" fill="white"/>
</mask>
<g mask="url(#mask0_1_871)">
<path d="M903.76 358.77C900.26 358.77 896.84 359.88 894.01 361.93C891.17 363.99 889.06 366.89 887.98 370.22L887.87 370.56H890.92L890.99 370.4C892.12 367.54 894.18 365.14 896.84 363.59C899.5 362.04 902.6 361.43 905.65 361.86C908.7 362.29 911.51 363.73 913.64 365.96C915.77 368.18 917.08 371.06 917.38 374.12C917.67 377.18 916.93 380.26 915.26 382.84C913.59 385.43 911.1 387.38 908.19 388.38C905.28 389.38 902.12 389.37 899.21 388.35C896.31 387.33 893.83 385.37 892.18 382.77C892.1 382.65 892.03 382.54 891.96 382.41L891.8 382.14H888.6L888.79 382.52C889.08 383.14 889.41 383.74 889.78 384.32C891.33 386.75 893.49 388.73 896.04 390.07C898.59 391.41 901.45 392.06 904.33 391.97C907.21 391.87 910.02 391.02 912.47 389.51C914.92 388 916.94 385.87 918.33 383.34C919.71 380.81 920.42 377.97 920.37 375.08C920.32 372.2 919.52 369.38 918.05 366.9C916.58 364.42 914.49 362.37 911.98 360.94C909.47 359.51 906.64 358.76 903.76 358.76V358.77Z" fill="#FF6633"/>
<path d="M904.53 373.09L898.71 367.27L896.78 369.2L900.16 372.59H874.95L876.58 375.32H903.6L904.53 373.08V373.09Z" fill="#FF6633"/>
<path d="M904.49 385.43L902.56 383.5L905.94 380.11H879.41L877.79 377.37H909.38L910.31 379.62L904.49 385.44V385.43Z" fill="#FF6633"/>
</g>
<path d="M1336.05 334.15H1108.33V418.24H1336.05V334.15Z" fill="white" stroke="#FF6633" stroke-width="2"/>
<path d="M1207.19 359.58H1178.24L1176.92 360.9V389.85L1178.24 391.17H1207.19L1208.51 389.85V360.9L1207.19 359.58ZM1205.88 388.53H1179.56V362.21H1205.88V388.53Z" fill="#FF6633"/>
<path d="M1183.91 378.33H1187.56L1188.31 380.63H1190.6L1187.11 370.52H1184.36L1180.87 380.63H1183.16L1183.91 378.33ZM1185.7 372.83H1185.78L1187.02 376.66H1184.45L1185.7 372.83Z" fill="#FF6633"/>
<path d="M1193.82 377.36H1195.62C1196.31 377.38 1196.99 377.23 1197.61 376.93C1198.14 376.66 1198.58 376.24 1198.87 375.73C1199.17 375.19 1199.32 374.57 1199.3 373.95C1199.31 373.33 1199.17 372.72 1198.87 372.17C1198.58 371.66 1198.15 371.24 1197.63 370.96C1197.02 370.65 1196.35 370.5 1195.67 370.52H1191.68V380.63H1193.82V377.35V377.36ZM1193.82 372.27H1195.26C1195.61 372.26 1195.97 372.33 1196.29 372.48C1196.55 372.61 1196.76 372.81 1196.89 373.07C1197.02 373.35 1197.09 373.65 1197.09 373.95C1197.09 374.25 1197.02 374.56 1196.89 374.83C1196.76 375.09 1196.54 375.3 1196.29 375.43C1195.97 375.58 1195.62 375.66 1195.27 375.65H1193.82V372.28V372.27Z" fill="#FF6633"/>
<path d="M1203.24 370.52H1201.1V380.63H1203.24V370.52Z" fill="#FF6633"/>
<path d="M1108.33 234.83V228.83H1114.33" stroke="#FF6633" stroke-width="2"/>
<path d="M1125.69 228.83H1324.38" stroke="#FF6633" stroke-width="2" stroke-dasharray="11.35 11.35"/>
<path d="M1330.05 228.83H1336.05V234.83" stroke="#FF6633" stroke-width="2"/>
<path d="M1336.05 245.13V301.77" stroke="#FF6633" stroke-width="2" stroke-dasharray="10.3 10.3"/>
<path d="M1336.05 306.92V312.92H1330.05" stroke="#FF6633" stroke-width="2"/>
<path d="M1318.7 312.92H1120.01" stroke="#FF6633" stroke-width="2" stroke-dasharray="11.35 11.35"/>
<path d="M1114.33 312.92H1108.33V306.92" stroke="#FF6633" stroke-width="2"/>
<path d="M1108.33 296.62V239.98" stroke="#FF6633" stroke-width="2" stroke-dasharray="10.3 10.3"/>
<path d="M305.19 270.88H1108.33" stroke="#9E9E9E" stroke-width="3" stroke-miterlimit="10"/>
<path d="M315.13 283.15L317.18 280.95L306.34 270.88L317.18 260.81L315.13 258.61L301.94 270.88L315.13 283.15Z" fill="#9E9E9E"/>
<path d="M514.25 811.95H204.59V770.94" stroke="#9E9E9E" stroke-width="3" stroke-miterlimit="10"/>
<path d="M504.31 799.68L502.26 801.88L513.1 811.95L502.26 822.02L504.31 824.22L517.5 811.95L504.31 799.68Z" fill="#9E9E9E"/>
<text fill="black" style="white-space: pre" xml:space="preserve" font-family="Inter" font-size="22" font-weight="500" letter-spacing="0em"><tspan x="1250.41" y="539.5">3. SOAR: Mitigate playbook</tspan></text>
<text fill="black" style="white-space: pre" xml:space="preserve" font-family="Inter" font-size="22" font-weight="500" letter-spacing="0em"><tspan x="354.41" y="247.33">4. Block IP</tspan></text>
<text fill="black" style="white-space: pre" xml:space="preserve" font-family="Inter" font-size="22" font-weight="500" letter-spacing="0em"><tspan x="354.41" y="850">1. Telemetry</tspan></text>
<path fill-rule="evenodd" clip-rule="evenodd" d="M242.33 273.14H145.81C143.25 273.14 140.96 275.29 140.96 277.99V341.4H247.18V277.99C247.18 275.3 244.89 273.14 242.33 273.14Z" fill="white"/>
<path d="M247.93 342.15H140.21V277.99C140.21 274.96 142.77 272.39 145.81 272.39H242.33C245.36 272.39 247.93 274.95 247.93 277.99V342.15ZM141.71 340.65H246.43V277.99C246.43 275.77 244.55 273.89 242.33 273.89H145.81C143.59 273.89 141.71 275.77 141.71 277.99V340.65Z" fill="#B0291C"/>
<path d="M251.48 346.24H136.78C130.86 346.24 126.82 345.3 126.82 344.49V341.8C126.82 341.53 127.09 341.26 127.36 341.26H260.77C261.04 341.26 261.31 341.53 261.31 341.8V344.49C261.44 345.3 258.35 346.24 251.48 346.24Z" fill="white"/>
<path d="M251.48 346.99H136.78C135.68 346.99 126.07 346.92 126.07 344.49V341.8C126.07 341.11 126.67 340.51 127.36 340.51H260.77C261.46 340.51 262.06 341.11 262.06 341.8V344.45C262.09 344.75 261.99 345.04 261.77 345.29C260.47 346.83 254.14 346.99 251.48 346.99ZM127.57 344.29C128.25 344.74 131.46 345.49 136.78 345.49H251.48C257.69 345.49 260.07 344.72 260.56 344.38V342.01H127.57V344.29Z" fill="#3E74FF"/>
<path d="M261.24 341.8C261.24 341.53 260.97 341.26 260.7 341.26H127.29C127.02 341.26 126.75 341.53 126.75 341.8V344.36H261.37V341.8H261.24Z" fill="#FEEDEB"/>
<path d="M251.48 346.99H136.78C135.68 346.99 126.07 346.92 126.07 344.49V341.8C126.07 341.11 126.67 340.51 127.36 340.51H260.77C261.46 340.51 262.06 341.11 262.06 341.8V344.45C262.09 344.75 261.99 345.04 261.77 345.29C260.47 346.83 254.14 346.99 251.48 346.99ZM127.57 344.29C128.25 344.74 131.46 345.49 136.78 345.49H251.48C257.69 345.49 260.07 344.72 260.56 344.38V342.01H127.57V344.29Z" fill="#B0291C"/>
<path d="M242.8 280.68H145.33V337.49H242.8V280.68Z" fill="#FEEDEB"/>
<path fill-rule="evenodd" clip-rule="evenodd" d="M208.67 341.53V342.07C208.67 342.47 207.86 342.61 207.19 342.61H180.94C180.27 342.61 179.46 342.48 179.46 342.07V341.53" fill="#FC3D2E"/>
<path d="M194.31 334.26C208.33 334.26 219.7 322.89 219.7 308.87C219.7 294.85 208.33 283.48 194.31 283.48C180.29 283.48 168.92 294.85 168.92 308.87C168.92 322.89 180.29 334.26 194.31 334.26Z" fill="white" stroke="#B0291C" stroke-width="2" stroke-miterlimit="10"/>
<path d="M210.88 328.11C206.01 325.52 200.61 324.83 199.61 322.47C198.85 320.68 199.61 314.7 199.61 314.7L187.84 314.58C187.84 314.58 188.58 320.65 187.84 322.48C186.94 324.7 182.03 325.41 177.53 327.93" fill="#F2D6F4"/>
<path d="M210.88 328.11C206.01 325.52 200.61 324.83 199.61 322.47C198.85 320.68 199.61 314.7 199.61 314.7L187.84 314.58C187.84 314.58 188.58 320.65 187.84 322.48C186.94 324.7 182.03 325.41 177.53 327.93" stroke="#4D1470" stroke-width="1.06" stroke-miterlimit="10"/>
<path d="M203.97 310.12C206.38 311.32 208.23 313.43 209.14 316L212 325.33C212.16 325.83 212.34 326.08 212.37 326.14C212.37 326.14 212.38 326.15 212.38 326.2C212.38 326.26 212.38 326.38 212.34 326.61C212.34 326.61 212.34 326.63 212.33 326.65C212.32 326.68 212.29 326.71 212.26 326.76C212.19 326.85 212.09 326.96 211.95 327.08C211.67 327.32 211.3 327.58 210.92 327.81C210.54 328.04 210.17 328.25 209.88 328.4C209.74 328.47 209.62 328.53 209.54 328.57C209.5 328.59 209.47 328.61 209.45 328.62C209.44 328.62 209.43 328.62 209.43 328.63L209.35 328.67L209.29 328.73C208.9 329.12 208.26 329.7 207.6 330.18C207.27 330.42 206.95 330.63 206.66 330.78C206.36 330.93 206.16 330.99 206.04 330.99H205.93L193.6 333.79C193.37 333.79 192.71 333.71 191.76 333.55C190.76 333.38 189.45 333.11 188.04 332.73C185.19 331.95 181.93 330.71 179.65 328.85C179.22 328.5 178.39 327.86 177.68 327.31C177.32 327.03 176.99 326.78 176.75 326.6C176.69 326.56 176.64 326.52 176.6 326.48C176.6 326.45 176.61 326.42 176.62 326.38C176.67 326.13 176.76 325.77 176.9 325.34L179.74 316.03C180.2 314.73 180.9 313.54 181.81 312.52C182.7 311.52 183.77 310.71 184.96 310.13H203.99L203.97 310.12Z" fill="#FC3D2E" stroke="#B0291C"/>
<path d="M186.3 296.82C185.99 297.7 185.01 300.75 183.25 302.69L205.65 302.29C204.45 299.89 203.94 299.57 203.65 298.69C202.48 295.09 200.73 289.09 194.83 289.09C189.36 289.09 187.17 294.21 186.3 296.82Z" fill="#FC3D2E" stroke="#B0291C" stroke-miterlimit="10"/>
<path d="M207.25 304.36C207.25 305.47 206.94 307.1 205.51 308.69C205.51 308.69 205.503 308.7 205.49 308.72L195.68 319.93C195.48 320.16 195.23 320.28 194.98 320.29C194.93 320.29 194.89 320.29 194.84 320.26C194.64 320.23 194.46 320.12 194.3 319.93L189.4 314.48L184.31 308.83H184.29L184.27 308.8V308.77C182.75 307.17 182.44 305.51 182.44 304.37C182.45 303.34 182.69 302.36 183.12 301.57C184.32 299.25 187.24 297.1 194.84 297.1C203.19 297.1 205.44 299.28 206.61 301.63C207.01 302.42 207.23 303.38 207.24 304.37L207.25 304.36Z" fill="#B0291C" stroke="#B0291C" stroke-miterlimit="10"/>
<path d="M201.64 298.47V302.45C201.85 305.36 198.34 311.25 194.46 311.25C190.58 311.25 187.25 305.62 187.25 302.51V298.48C191.99 297.38 196.9 297.38 201.64 298.48V298.47Z" fill="#FCA39C" stroke="#B0291C"/>
<path d="M206 318.69H182.89C182.56 318.69 182.25 318.79 182.01 318.96C181.78 319.14 181.65 319.37 181.65 319.62V331.15L194.45 334.69L207.15 331.54L207.25 319.62C207.25 319.5 207.22 319.37 207.15 319.26C207.09 319.15 207 319.04 206.88 318.96C206.76 318.87 206.63 318.8 206.48 318.76C206.33 318.71 206.17 318.69 206 318.69Z" fill="#B0291C"/>
<path d="M194.31 334.26C208.33 334.26 219.7 322.89 219.7 308.87C219.7 294.85 208.33 283.48 194.31 283.48C180.29 283.48 168.92 294.85 168.92 308.87C168.92 322.89 180.29 334.26 194.31 334.26Z" stroke="#B0291C" stroke-width="2" stroke-miterlimit="10"/>
<text fill="black" style="white-space: pre" xml:space="preserve" font-family="Inter" font-size="30" font-weight="600" letter-spacing="0em"><tspan x="132.01" y="228.909">Attacker</tspan></text>
<text fill="black" style="white-space: pre" xml:space="preserve" font-family="Inter" font-size="12" font-weight="500" letter-spacing="0em"><tspan x="1712.84" y="1049.34"></tspan></text>
<text fill="black" style="white-space: pre" xml:space="preserve" font-family="Inter" font-size="32.05" font-weight="600" letter-spacing="0em"><tspan x="711.06" y="73.5345">3. Automated edge remediation</tspan></text>
<text fill="black" style="white-space: pre" xml:space="preserve" font-family="Inter" font-size="30" font-weight="600" letter-spacing="0em"><tspan x="662.45" y="386.309">Logs </tspan></text>
<text fill="black" style="white-space: pre" xml:space="preserve" font-family="Inter" font-size="30" font-weight="600" letter-spacing="0em"><tspan x="938.64" y="386.309">Access</tspan></text>
<text fill="black" style="white-space: pre" xml:space="preserve" font-family="Inter" font-size="30" font-weight="600" letter-spacing="0em"><tspan x="1224.17" y="386.309">API</tspan></text>
<path d="M1577.64 788.84H1493.56" stroke="#F26733" stroke-width="5" stroke-miterlimit="10"/>
<path d="M1493.56 892.65H1577.64" stroke="#239B7F" stroke-width="5" stroke-miterlimit="10"/>
<path d="M1493.56 839.01H1577.64" stroke="#004DC8" stroke-width="5" stroke-miterlimit="10"/>
<path d="M327.35 427.09H67.72V790.96H327.35V427.09Z" fill="#F2F7FF" stroke="#3E74FF" stroke-width="2.06"/>
<path d="M197.53 512.29C197.94 512.29 198.27 511.96 198.27 511.55C198.27 511.14 197.94 510.81 197.53 510.81C197.12 510.81 196.79 511.14 196.79 511.55C196.79 511.96 197.12 512.29 197.53 512.29Z" fill="#3E74FF"/>
<path fill-rule="evenodd" clip-rule="evenodd" d="M258.7 513.78H136.36C133.12 513.78 130.22 516.51 130.22 519.92V600.28H264.84V519.92C264.84 516.51 261.94 513.78 258.7 513.78Z" fill="#E0ECFF" stroke="#3E74FF" stroke-width="1.5" stroke-miterlimit="10"/>
<path d="M270.3 606.43H124.93C117.42 606.43 112.3 605.24 112.3 604.21V600.8C112.3 600.46 112.64 600.12 112.98 600.12H282.07C282.41 600.12 282.75 600.46 282.75 600.8V604.21C282.92 605.23 279 606.43 270.29 606.43H270.3Z" fill="white"/>
<path d="M270.3 606.43H124.93C117.42 606.43 112.3 605.24 112.3 604.21V600.8C112.3 600.46 112.64 600.12 112.98 600.12H282.07C282.41 600.12 282.75 600.46 282.75 600.8V604.21C282.92 605.23 279 606.43 270.29 606.43H270.3Z" stroke="#3E74FF" stroke-width="1.5" stroke-miterlimit="10"/>
<path d="M282.68 600.8C282.68 600.46 282.34 600.12 282 600.12H112.91C112.57 600.12 112.23 600.46 112.23 600.8V604.04H282.85V600.8H282.68Z" fill="#E0ECFF"/>
<path d="M270.3 606.43H124.93C117.42 606.43 112.3 605.24 112.3 604.21V600.8C112.3 600.46 112.64 600.12 112.98 600.12H282.07C282.41 600.12 282.75 600.46 282.75 600.8V604.21C282.92 605.23 279 606.43 270.29 606.43H270.3Z" stroke="#3E74FF" stroke-width="1.5" stroke-miterlimit="10"/>
<path d="M259.3 523.33H135.77V595.33H259.3V523.33Z" fill="white"/>
<path fill-rule="evenodd" clip-rule="evenodd" d="M216.05 600.45V601.13C216.05 601.64 215.03 601.81 214.17 601.81H180.9C180.05 601.81 179.02 601.64 179.02 601.13V600.45" fill="#3E74FF"/>
<path d="M197.53 590.57C214.78 590.57 228.77 576.58 228.77 559.33C228.77 542.08 214.78 528.09 197.53 528.09C180.28 528.09 166.29 542.08 166.29 559.33C166.29 576.58 180.28 590.57 197.53 590.57Z" fill="white" stroke="#3E74FF" stroke-width="1.5" stroke-miterlimit="10"/>
<path d="M196.37 547.62C196.92 546.78 198.15 546.78 198.7 547.62L199.14 548.3C199.57 548.96 200.47 549.13 201.12 548.67L201.77 548.2C202.59 547.62 203.73 548.06 203.94 549.04L204.11 549.84C204.28 550.61 205.05 551.09 205.82 550.9L206.6 550.7C207.57 550.45 208.48 551.28 208.32 552.27L208.19 553.09C208.07 553.87 208.62 554.6 209.4 554.69L210.21 554.79C211.2 554.91 211.75 556.01 211.25 556.87L210.83 557.59C210.43 558.27 210.68 559.15 211.38 559.52L212.11 559.91C212.99 560.38 213.1 561.6 212.32 562.22L211.67 562.74C211.06 563.23 210.97 564.14 211.49 564.73L212.03 565.36C212.68 566.12 212.35 567.3 211.39 567.6L210.6 567.85C209.85 568.09 209.44 568.9 209.71 569.64L209.99 570.42C210.33 571.36 209.59 572.34 208.59 572.28L207.78 572.23C206.99 572.18 206.32 572.79 206.3 573.58L206.28 574.4C206.25 575.4 205.21 576.05 204.3 575.62L203.57 575.28C202.85 574.95 202 575.28 201.7 576.01L201.39 576.76C201 577.69 199.79 577.91 199.1 577.19L198.54 576.61C197.99 576.04 197.08 576.04 196.53 576.61L195.97 577.19C195.28 577.91 194.07 577.69 193.68 576.76L193.37 576.01C193.07 575.28 192.21 574.95 191.5 575.28L190.77 575.62C189.86 576.04 188.82 575.4 188.79 574.4L188.77 573.58C188.75 572.79 188.07 572.18 187.29 572.23L186.48 572.28C185.48 572.35 184.74 571.37 185.08 570.42L185.36 569.64C185.62 568.9 185.22 568.08 184.47 567.85L183.68 567.6C182.73 567.3 182.39 566.12 183.04 565.36L183.58 564.73C184.09 564.13 184.01 563.23 183.4 562.74L182.75 562.22C181.97 561.59 182.08 560.38 182.96 559.91L183.69 559.52C184.39 559.15 184.63 558.27 184.24 557.59L183.82 556.87C183.32 556 183.87 554.91 184.86 554.79L185.67 554.69C186.45 554.6 187 553.87 186.88 553.09L186.75 552.27C186.59 551.28 187.5 550.45 188.47 550.7L189.25 550.9C190.02 551.1 190.79 550.62 190.96 549.84L191.13 549.04C191.34 548.06 192.49 547.61 193.3 548.2L193.95 548.67C194.59 549.13 195.49 548.96 195.93 548.3L196.37 547.62Z" fill="#0F006B"/>
<path d="M187.43 575.61C189.06 574.72 190.56 573.62 191.91 572.35V564.11L202.77 564.24V571.99C203.27 572.95 205.14 574.14 207.64 575.54C207.64 575.54 202.99 582.47 197.16 582.47C191.33 582.47 187.43 575.61 187.43 575.61Z" fill="#E0EDFF" stroke="#0F006B" stroke-width="1.5" stroke-miterlimit="10"/>
<path d="M197.63 590.57C205.38 590.58 212.86 587.7 218.6 582.48C215.4 579.73 211.85 577.41 208.04 575.58C208.04 575.58 203.33 582.46 197.5 582.46C191.67 582.46 187.74 575.67 187.74 575.67C184.16 577.69 179.76 579.59 176.47 582.3C182.23 587.62 189.79 590.57 197.63 590.56V590.57Z" fill="#3E74FF" stroke="#0F006B" stroke-width="1.5" stroke-miterlimit="10"/>
<path d="M196.58 553.68C196.64 553.45 196.75 553.23 196.89 553.04C197.03 552.85 197.22 552.7 197.43 552.58C197.64 552.47 197.87 552.4 198.11 552.38C198.35 552.36 198.59 552.39 198.81 552.47C200.17 552.88 199.4 557.81 195.61 557.63C196 556.33 196.32 555.01 196.57 553.67L196.58 553.68Z" fill="#E0EDFF" stroke="#0F006B" stroke-width="1.5" stroke-miterlimit="10"/>
<path d="M198.53 553.68C198.47 553.44 198.35 553.22 198.2 553.03C198.05 552.84 197.85 552.68 197.64 552.57C197.42 552.46 197.18 552.39 196.94 552.37C196.7 552.35 196.45 552.39 196.22 552.47C195.04 552.95 195.63 557.81 199.42 557.63C199.04 556.33 198.74 555.01 198.54 553.67L198.53 553.68Z" fill="#E0EDFF" stroke="#0F006B" stroke-width="1.5" stroke-miterlimit="10"/>
<path d="M208.33 549.15C208.33 551.97 207.3 557.7 205.49 561.16C204.15 563.73 200.68 566.59 197.54 566.59C194.4 566.59 191.29 563.73 189.59 561.16C187.43 557.9 186.75 551.96 186.75 549.15C186.75 546.34 187.89 543.54 189.91 541.52C191.93 539.5 194.68 538.36 197.54 538.36C200.4 538.36 203.15 539.5 205.17 541.52C207.19 543.54 208.33 546.29 208.33 549.15Z" fill="#E0EDFF" stroke="#0F006B" stroke-width="1.5" stroke-miterlimit="10"/>
<path d="M207.77 552.7C207.26 548.41 203.1 542.7 198.46 542.7L197.69 539.14L199.13 542.74C199.13 550.52 187.6 548.44 187.12 553.58L186.94 553.4C186.7 551.9 186.57 550.39 186.56 548.87C186.56 542.91 191.58 538.26 197.54 538.26C200.42 538.26 203.19 539.38 205.25 541.4C207.31 543.42 208.48 546.17 208.52 549.05C208.46 550.53 208.26 552 207.91 553.45L207.78 552.7H207.77Z" fill="#0F006B" stroke="#0F006B" stroke-width="1.5" stroke-linejoin="round"/>
<path d="M197.53 590.57C214.78 590.57 228.77 576.58 228.77 559.33C228.77 542.08 214.78 528.09 197.53 528.09C180.28 528.09 166.29 542.08 166.29 559.33C166.29 576.58 180.28 590.57 197.53 590.57Z" stroke="#3E74FF" stroke-width="1.5" stroke-miterlimit="10"/>
<text fill="black" style="white-space: pre" xml:space="preserve" font-family="Inter" font-size="30" font-weight="600" letter-spacing="0em"><tspan x="94.11" y="684.749">[WARP Agent]</tspan></text>
<text fill="black" style="white-space: pre" xml:space="preserve" font-family="Inter" font-size="30" font-weight="600" letter-spacing="0em"><tspan x="94.11" y="720.749">[Falcon agent]</tspan></text>
<text fill="black" style="white-space: pre" xml:space="preserve" font-family="Inter" font-size="30" font-weight="600" letter-spacing="0em"><tspan x="132.74" y="469.379">Endpoint</tspan></text>
<path d="M1394.28 592.72H516.73V960.13H1394.28V592.72Z" fill="white" stroke="#FC0000" stroke-width="2.54"/>
<path d="M784.11 981.74H1127.24V933.74H784.11V981.74Z" fill="white"/>
<path opacity="0.1" fill-rule="evenodd" clip-rule="evenodd" d="M1365.65 617.54V914.69H545.7V617.54H1365.65Z" fill="#FC0000"/>
<path d="M803.34 655.65H575.62V880.45H803.34V655.65Z" fill="white" stroke="#FC0000" stroke-width="2.78"/>
<path d="M1069.53 655.65H841.81V880.45H1069.53V655.65Z" fill="white" stroke="#FC0000" stroke-width="2.78"/>
<path d="M1335.72 655.65H1108V880.45H1335.72V655.65Z" fill="white" stroke="#FC0000" stroke-width="2.78"/>
<path fill-rule="evenodd" clip-rule="evenodd" d="M862.84 958.92V959.42C861.18 961.41 859.03 962.74 856.71 963.4C854.22 961.41 851.74 959.59 848.92 957.76C848.09 957.26 847.43 956.77 846.43 956.1C844.94 955.11 843.11 953.94 841.29 952.62V951.79C841.29 944.99 846.6 940.02 853.56 940.02C857.21 940.02 860.52 941.68 862.84 944.33V944.83L858.7 948.31H858.2C857.04 946.98 855.22 946.15 853.39 946.15C851.9 946.15 850.57 946.65 849.58 947.81C848.59 948.8 848.09 950.3 848.09 951.79C848.09 953.28 848.59 954.61 849.58 955.77C850.57 956.76 851.9 957.43 853.39 957.43C855.21 957.43 856.87 956.6 858.2 955.27H858.7L862.84 958.92ZM850.4 963.4C847.75 962.9 845.43 961.41 843.77 959.26C843.94 959.26 844.1 959.43 844.27 959.59C844.6 959.76 844.77 959.92 845.1 960.09C846.76 961.25 848.58 962.25 850.41 963.24V963.41L850.4 963.4Z" fill="black"/>
<path fill-rule="evenodd" clip-rule="evenodd" d="M886.71 957.43L887.7 961.91V962.41C886.71 963.07 885.71 963.4 884.55 963.4C881.73 963.4 880.24 962.74 878.25 959.75C877.26 958.26 875.43 955.11 873.77 955.11H873.11V963.07H866.15V940.36H876.76C882.89 940.36 886.21 943.34 886.21 947.99C886.21 950.81 884.55 953.3 881.9 954.29C882.56 954.79 883.23 955.45 883.72 956.11C884.22 956.77 884.55 957.6 885.38 957.6C885.71 957.6 886.04 957.6 886.37 957.43H886.7H886.71ZM878.92 948.15C878.92 948.81 878.75 949.31 878.26 949.81C877.76 950.31 877.1 950.47 876.44 950.47H873.12V945.83H876.44C877.1 945.83 877.77 946 878.26 946.49C878.76 946.99 878.92 947.65 878.92 948.15Z" fill="black"/>
<path fill-rule="evenodd" clip-rule="evenodd" d="M900.14 940.19C907.27 940.19 912.57 945.16 912.57 951.79C912.57 958.42 907.26 963.39 900.14 963.39C893.02 963.39 887.71 958.42 887.71 951.79C887.71 945.16 893.02 940.19 900.14 940.19ZM902.96 956.77C904.62 955.78 905.78 953.95 905.61 951.8C905.61 949.81 904.62 947.99 902.96 946.83C901.3 945.84 899.15 945.84 897.32 946.83C895.66 947.82 894.5 949.65 894.67 951.8C894.67 953.79 895.66 955.61 897.32 956.77C898.98 957.76 901.13 957.76 902.96 956.77Z" fill="black"/>
<path d="M945.4 940.19H939.1L935.29 953.12L931.15 940.19H927.17L923.03 952.96L919.22 940.19H912.92L912.59 940.69L920.71 963.4H924.69L929.17 950.8L933.81 963.4H937.79L945.91 940.69L945.58 940.19H945.41H945.4Z" fill="black"/>
<path fill-rule="evenodd" clip-rule="evenodd" d="M959.16 940.19C966.29 940.19 970.6 944.83 970.6 951.79C970.6 958.75 966.29 963.39 959.16 963.39H949.05V940.18H959.16V940.19ZM958.82 957.76C961.64 957.76 963.79 955.6 963.79 951.79C963.79 947.98 961.63 945.82 958.82 945.82H955.5V957.59H958.82V957.76Z" fill="black"/>
<path d="M1008.23 945.99H1015.36V940.35H993.81V945.99H1000.94V963.56H1008.07V945.99H1008.24H1008.23Z" fill="black"/>
<path fill-rule="evenodd" clip-rule="evenodd" d="M1027.29 940.19C1033.26 940.19 1036.41 943.17 1036.41 947.98C1036.41 950.96 1034.75 953.12 1032.27 954.28L1036.91 962.9L1036.58 963.4H1029.78L1025.47 955.28H1023.81V963.4H1017.01V940.19H1027.29ZM1029.45 948.31C1029.45 948.97 1029.28 949.64 1028.79 949.97C1028.29 950.47 1027.63 950.63 1027.13 950.63H1023.98V945.99H1027.13C1027.79 945.99 1028.46 946.16 1028.79 946.65C1029.29 947.15 1029.45 947.81 1029.45 948.47V948.3V948.31Z" fill="black"/>
<path d="M1040.22 940.19H1046.85V963.4H1040.22V940.19Z" fill="black"/>
<path d="M1063.27 950.64L1071.06 940.86L1070.73 940.36H1063.44L1056.97 948.65V940.36H1050.01V963.57H1056.97V956.44L1058.3 954.95L1064.1 963.57H1071.39L1071.72 963.07L1063.27 950.8V950.63V950.64Z" fill="black"/>
<path d="M1091.45 945.99V940.35H1075.04V963.56H1091.62V957.92H1081.67V954.77H1089.13V949.46H1081.67V946.31H1091.62L1091.45 945.98V945.99Z" fill="black"/>
<path d="M982.53 963.4C987.67 963.4 992.15 960.91 992.15 956.27C992.15 951.63 987.67 949.97 983.7 948.81C982.21 948.31 980.55 947.82 980.55 946.82C980.55 945.82 981.38 945.49 982.87 945.49C985.19 945.49 987.18 946.82 988.18 947.81H988.68L992 944V943.5C990.18 941.68 986.69 940.18 982.72 940.18C978.75 940.18 973.44 943 973.44 947.14C973.44 951.28 977.58 953.44 981.23 954.43C983.55 955.09 985.04 955.09 985.04 956.42C985.04 957.75 983.88 957.75 982.22 957.75C980.56 957.75 977.41 956.42 976.09 955.26H975.59L972.27 959.24V959.74C974.43 962.06 978.07 963.55 982.55 963.55" fill="black"/>
<path d="M866.15 984.95C864.49 981.3 861.18 976.5 848.25 969.7C842.28 966.38 832.17 961.41 823.05 951.8C823.88 955.28 828.19 962.91 846.43 972.36C851.4 975.01 860.02 977.67 866.16 984.96" fill="black"/>
<path d="M864.49 978.32C863 973.84 860.35 968.21 847.41 959.92C841.11 955.78 831.83 950.47 819.72 936.88C820.55 940.53 824.36 949.98 843.76 962.24C850.06 966.72 858.35 969.37 864.48 978.32" fill="black"/>
<mask id="mask1_1_871" style="mask-type:luminance" maskUnits="userSpaceOnUse" x="1191" y="680" width="62" height="62">
<path d="M1252.31 680.52H1191.42V741.41H1252.31V680.52Z" fill="white"/>
</mask>
<g mask="url(#mask1_1_871)">
<path d="M1243.51 718.15V703.73C1244.26 703.58 1244.96 703.26 1245.56 702.79C1246.16 702.32 1246.63 701.71 1246.95 701.02C1247.27 700.33 1247.41 699.57 1247.38 698.81C1247.34 698.05 1247.13 697.31 1246.75 696.65C1246.37 695.99 1245.84 695.43 1245.2 695.02C1244.56 694.61 1243.83 694.35 1243.07 694.28C1242.31 694.21 1241.55 694.31 1240.84 694.59C1240.13 694.87 1239.5 695.32 1239 695.89L1226.39 688.64C1226.56 688.16 1226.65 687.65 1226.66 687.14C1226.66 686.51 1226.54 685.89 1226.3 685.31C1226.06 684.73 1225.71 684.2 1225.26 683.76C1224.82 683.32 1224.29 682.96 1223.71 682.72C1223.13 682.48 1222.51 682.36 1221.88 682.36C1221.25 682.36 1220.63 682.48 1220.05 682.72C1219.47 682.96 1218.94 683.31 1218.5 683.76C1218.06 684.2 1217.7 684.73 1217.46 685.31C1217.22 685.89 1217.1 686.51 1217.1 687.14C1217.1 687.65 1217.2 688.16 1217.37 688.64L1204.76 695.89C1204.32 695.38 1203.77 694.97 1203.15 694.68C1202.53 694.4 1201.86 694.25 1201.18 694.25C1199.99 694.25 1198.85 694.69 1197.97 695.49C1197.09 696.29 1196.54 697.38 1196.42 698.57C1196.3 699.75 1196.63 700.94 1197.33 701.89C1198.03 702.85 1199.07 703.51 1200.23 703.75V718.17C1199.48 718.32 1198.78 718.64 1198.18 719.11C1197.58 719.58 1197.1 720.19 1196.79 720.89C1196.47 721.58 1196.33 722.34 1196.36 723.11C1196.4 723.87 1196.61 724.61 1197 725.28C1197.38 725.94 1197.91 726.5 1198.56 726.91C1199.2 727.32 1199.93 727.58 1200.69 727.65C1201.45 727.72 1202.22 727.61 1202.92 727.33C1203.63 727.05 1204.26 726.6 1204.76 726.02L1217.37 733.27C1217.2 733.75 1217.11 734.26 1217.1 734.77C1217.1 735.4 1217.22 736.02 1217.46 736.6C1217.7 737.18 1218.05 737.71 1218.5 738.15C1218.94 738.59 1219.47 738.95 1220.05 739.19C1220.63 739.43 1221.25 739.55 1221.88 739.55C1222.51 739.55 1223.13 739.43 1223.71 739.19C1224.29 738.95 1224.82 738.6 1225.26 738.15C1225.7 737.71 1226.06 737.18 1226.3 736.6C1226.54 736.02 1226.66 735.4 1226.66 734.77C1226.66 734.26 1226.56 733.75 1226.39 733.27L1239 726.02C1239.5 726.59 1240.13 727.03 1240.84 727.31C1241.55 727.59 1242.31 727.69 1243.06 727.62C1243.81 727.54 1244.54 727.29 1245.18 726.88C1245.82 726.47 1246.35 725.91 1246.73 725.25C1247.11 724.59 1247.33 723.86 1247.36 723.1C1247.4 722.34 1247.25 721.59 1246.94 720.9C1246.63 720.21 1246.16 719.6 1245.56 719.13C1244.97 718.66 1244.27 718.33 1243.53 718.18L1243.51 718.15ZM1242.56 696.14C1243.13 696.14 1243.69 696.31 1244.17 696.62C1244.65 696.94 1245.02 697.39 1245.24 697.92C1245.46 698.45 1245.52 699.03 1245.41 699.59C1245.3 700.15 1245.02 700.67 1244.62 701.07C1244.22 701.48 1243.7 701.75 1243.14 701.86C1242.58 701.97 1242 701.92 1241.47 701.7C1240.94 701.48 1240.49 701.11 1240.17 700.63C1239.85 700.15 1239.68 699.59 1239.68 699.02C1239.68 698.25 1239.98 697.52 1240.52 696.98C1241.06 696.44 1241.79 696.13 1242.56 696.13V696.14ZM1221.86 684.24C1222.43 684.24 1222.99 684.41 1223.47 684.72C1223.95 685.04 1224.32 685.49 1224.54 686.02C1224.76 686.55 1224.82 687.13 1224.71 687.69C1224.6 688.25 1224.32 688.77 1223.92 689.17C1223.52 689.58 1223 689.85 1222.44 689.96C1221.88 690.07 1221.3 690.02 1220.77 689.8C1220.24 689.58 1219.79 689.21 1219.47 688.73C1219.15 688.25 1218.98 687.69 1218.98 687.12C1218.98 686.35 1219.28 685.62 1219.82 685.08C1220.36 684.54 1221.09 684.23 1221.86 684.23V684.24ZM1198.27 699.03C1198.27 698.46 1198.44 697.9 1198.76 697.43C1199.08 696.96 1199.53 696.59 1200.06 696.37C1200.59 696.15 1201.17 696.1 1201.72 696.21C1202.28 696.32 1202.79 696.6 1203.19 697C1203.59 697.4 1203.87 697.92 1203.98 698.48C1204.09 699.04 1204.03 699.62 1203.81 700.14C1203.59 700.67 1203.22 701.12 1202.75 701.43C1202.28 701.75 1201.72 701.92 1201.15 701.92C1200.38 701.92 1199.65 701.61 1199.11 701.07C1198.57 700.53 1198.27 699.79 1198.27 699.03ZM1201.15 725.74C1200.58 725.74 1200.02 725.57 1199.54 725.26C1199.06 724.94 1198.69 724.49 1198.47 723.96C1198.25 723.43 1198.19 722.85 1198.3 722.29C1198.41 721.73 1198.69 721.21 1199.09 720.81C1199.49 720.4 1200.01 720.13 1200.57 720.02C1201.13 719.91 1201.71 719.96 1202.24 720.18C1202.77 720.4 1203.22 720.77 1203.54 721.25C1203.86 721.73 1204.03 722.29 1204.03 722.86C1204.03 723.63 1203.73 724.36 1203.19 724.9C1202.65 725.44 1201.92 725.75 1201.15 725.75V725.74ZM1221.86 737.65C1221.29 737.65 1220.73 737.48 1220.25 737.17C1219.77 736.85 1219.4 736.4 1219.18 735.87C1218.96 735.34 1218.9 734.76 1219.01 734.2C1219.12 733.64 1219.4 733.12 1219.8 732.72C1220.2 732.31 1220.72 732.04 1221.28 731.93C1221.84 731.82 1222.42 731.87 1222.95 732.09C1223.48 732.31 1223.93 732.68 1224.25 733.16C1224.57 733.64 1224.74 734.2 1224.74 734.77C1224.74 735.54 1224.44 736.27 1223.9 736.81C1223.36 737.35 1222.63 737.66 1221.86 737.66V737.65ZM1225.42 731.6C1224.98 731.09 1224.43 730.67 1223.81 730.39C1223.19 730.11 1222.52 729.96 1221.84 729.96C1221.16 729.96 1220.49 730.11 1219.87 730.39C1219.25 730.67 1218.7 731.08 1218.26 731.6L1205.65 724.35C1205.82 723.87 1205.91 723.36 1205.92 722.85C1205.92 721.74 1205.54 720.67 1204.84 719.82C1204.14 718.96 1203.17 718.37 1202.09 718.15V703.73C1203.17 703.51 1204.15 702.92 1204.84 702.06C1205.54 701.2 1205.92 700.13 1205.92 699.03C1205.92 698.52 1205.82 698.01 1205.65 697.53L1218.26 690.28C1218.7 690.79 1219.25 691.2 1219.87 691.49C1220.49 691.77 1221.16 691.92 1221.84 691.92C1222.52 691.92 1223.19 691.77 1223.8 691.49C1224.42 691.21 1224.97 690.8 1225.41 690.29L1238.02 697.54C1237.85 698.02 1237.76 698.53 1237.75 699.04C1237.75 700.15 1238.13 701.22 1238.83 702.07C1239.53 702.93 1240.5 703.52 1241.58 703.74V718.16C1240.5 718.38 1239.52 718.97 1238.83 719.83C1238.13 720.69 1237.75 721.76 1237.75 722.86C1237.75 723.37 1237.85 723.88 1238.02 724.36L1225.41 731.61L1225.42 731.6ZM1242.56 725.74C1241.99 725.74 1241.43 725.57 1240.95 725.26C1240.47 724.94 1240.1 724.49 1239.88 723.96C1239.66 723.43 1239.6 722.85 1239.71 722.29C1239.82 721.73 1240.1 721.21 1240.5 720.81C1240.9 720.4 1241.42 720.13 1241.98 720.02C1242.54 719.91 1243.12 719.96 1243.65 720.18C1244.18 720.4 1244.63 720.77 1244.95 721.25C1245.27 721.73 1245.44 722.29 1245.44 722.86C1245.44 723.63 1245.14 724.36 1244.6 724.9C1244.06 725.44 1243.33 725.75 1242.56 725.75V725.74Z" fill="#EC0000"/>
<path d="M1233.45 712.13C1232.91 712.13 1232.38 712.3 1231.94 712.6C1231.49 712.91 1231.15 713.34 1230.96 713.85H1214.48V704.16H1220.9V707.07C1220.9 707.32 1221 707.56 1221.18 707.74C1221.36 707.92 1221.6 708.02 1221.85 708.02H1225.46C1225.68 708.6 1226.1 709.09 1226.65 709.4C1227.19 709.71 1227.83 709.81 1228.44 709.7C1229.05 709.59 1229.61 709.26 1230.01 708.78C1230.41 708.3 1230.63 707.69 1230.63 707.07C1230.63 706.45 1230.41 705.84 1230.01 705.36C1229.61 704.88 1229.05 704.55 1228.44 704.44C1227.83 704.33 1227.19 704.44 1226.65 704.74C1226.11 705.05 1225.69 705.53 1225.46 706.12H1222.81V700.29H1225.46C1225.68 700.87 1226.1 701.36 1226.65 701.67C1227.19 701.98 1227.83 702.08 1228.44 701.97C1229.05 701.86 1229.61 701.53 1230.01 701.05C1230.41 700.57 1230.63 699.96 1230.63 699.34C1230.63 698.72 1230.41 698.11 1230.01 697.63C1229.61 697.15 1229.05 696.82 1228.44 696.71C1227.83 696.6 1227.19 696.71 1226.65 697.01C1226.11 697.32 1225.69 697.8 1225.46 698.39H1221.85C1221.6 698.39 1221.36 698.49 1221.18 698.67C1221 698.85 1220.9 699.09 1220.9 699.34V702.25H1213.53C1213.28 702.25 1213.04 702.35 1212.86 702.53C1212.68 702.71 1212.58 702.95 1212.58 703.2V713.85H1208.47C1208.22 713.85 1207.98 713.95 1207.8 714.13C1207.62 714.31 1207.52 714.55 1207.52 714.8C1207.52 715.05 1207.62 715.29 1207.8 715.47C1207.98 715.65 1208.22 715.75 1208.47 715.75H1212.58V722.53C1212.58 722.78 1212.68 723.02 1212.86 723.2C1213.04 723.38 1213.28 723.48 1213.53 723.48H1225.46C1225.68 724.06 1226.1 724.55 1226.65 724.86C1227.19 725.17 1227.83 725.27 1228.44 725.16C1229.05 725.05 1229.61 724.72 1230.01 724.24C1230.41 723.76 1230.63 723.15 1230.63 722.53C1230.63 721.91 1230.41 721.3 1230.01 720.82C1229.61 720.34 1229.05 720.01 1228.44 719.9C1227.83 719.79 1227.19 719.9 1226.65 720.2C1226.11 720.51 1225.69 720.99 1225.46 721.58H1214.48V715.75H1230.96C1231.13 716.21 1231.43 716.6 1231.81 716.9C1232.19 717.2 1232.65 717.39 1233.14 717.45C1233.62 717.51 1234.11 717.43 1234.56 717.23C1235 717.03 1235.38 716.71 1235.66 716.31C1235.94 715.91 1236.1 715.44 1236.13 714.95C1236.16 714.46 1236.05 713.98 1235.83 713.55C1235.6 713.12 1235.26 712.76 1234.85 712.51C1234.43 712.26 1233.96 712.13 1233.47 712.13H1233.45Z" fill="#EC0000"/>
</g>
<mask id="mask2_1_871" style="mask-type:luminance" maskUnits="userSpaceOnUse" x="921" y="678" width="65" height="65">
<path d="M985.51 678.96H921.51V742.96H985.51V678.96Z" fill="white"/>
</mask>
<g mask="url(#mask2_1_871)">
<path d="M982.51 727.55L982.62 699.07L982.59 686.96H926.87V703.34H925.77C924.52 703.34 923.51 704.35 923.51 705.6V730.28C923.51 731.53 924.52 732.54 925.77 732.54H938.51C939.76 732.54 940.77 731.53 940.77 730.28V727.54H948.65V734H941.34C940.79 734 940.34 734.45 940.34 735C940.34 735.55 940.79 736 941.34 736H968.16C968.71 736 969.16 735.55 969.16 735C969.16 734.45 968.71 734 968.16 734H960.85V727.54H982.51V727.55ZM938.78 730.28C938.78 730.42 938.66 730.54 938.52 730.54H925.78C925.64 730.54 925.52 730.42 925.52 730.28V727.38H938.78V730.28ZM938.78 725.38H925.52V710.95H938.78V725.38ZM938.78 708.95H925.52V705.6C925.52 705.46 925.64 705.34 925.78 705.34H938.52C938.66 705.34 938.78 705.46 938.78 705.6V708.95ZM958.85 734H950.65V727.54H958.85V734ZM943.73 725.55H940.78V705.6C940.78 704.35 939.77 703.34 938.52 703.34H928.87V688.96H980.59L980.61 699.07L980.5 725.55H943.73Z" fill="#EC0000"/>
<path d="M946.13 701.23V705.74C946.13 711.15 949.36 715.96 954.37 718L954.75 718.15L955.13 718C960.14 715.96 963.37 711.14 963.37 705.74V701.23L954.75 697.65L946.13 701.23ZM961.37 705.75C961.37 710.2 958.79 714.18 954.75 716C950.72 714.18 948.13 710.2 948.13 705.75V702.57L954.75 699.82L961.37 702.57V705.75Z" fill="#EC0000"/>
<path d="M934.68 706.1H929.62C929.07 706.1 928.62 706.55 928.62 707.1V707.3C928.62 707.85 929.07 708.3 929.62 708.3H934.68C935.23 708.3 935.68 707.85 935.68 707.3V707.1C935.68 706.55 935.23 706.1 934.68 706.1Z" fill="#EC0000"/>
</g>
<mask id="mask3_1_871" style="mask-type:luminance" maskUnits="userSpaceOnUse" x="657" y="682" width="59" height="58">
<path d="M715.88 682.65H657.57V739.49H715.88V682.65Z" fill="white"/>
</mask>
<g mask="url(#mask3_1_871)">
<path d="M686.88 723.94L675.73 717.5V704.63L686.88 698.19L698.03 704.63V717.5L686.88 723.94ZM677.62 716.41L686.88 721.75L696.14 716.41V705.72L686.88 700.38L677.62 705.72V716.41Z" fill="#EC0000"/>
<path d="M708.34 718.15V714.54H706.45V718.15C704.22 718.59 702.54 720.56 702.54 722.91C702.54 723.45 702.65 723.97 702.82 724.46L690.59 731.52C689.7 730.45 688.38 729.76 686.88 729.76C685.38 729.76 684.06 730.45 683.17 731.52L671.31 724.67L670.96 724.47C671.12 723.99 671.22 723.49 671.22 722.96C671.22 720.6 669.53 718.64 667.31 718.19V714.54H665.42V718.19C663.19 718.63 661.51 720.6 661.51 722.96C661.51 725.64 663.69 727.82 666.37 727.82C667.84 727.82 669.14 727.15 670.03 726.12L670.3 726.27L682.27 733.18C682.13 733.64 682.03 734.12 682.03 734.62C682.03 737.3 684.21 739.48 686.89 739.48C689.57 739.48 691.75 737.3 691.75 734.62C691.75 734.11 691.65 733.64 691.51 733.18L703.77 726.1C704.66 727.12 705.95 727.77 707.41 727.77C710.09 727.77 712.27 725.59 712.27 722.91C712.27 720.55 710.58 718.59 708.36 718.15M666.36 725.93C664.72 725.93 663.39 724.6 663.39 722.96C663.39 721.32 664.72 719.99 666.36 719.99C668 719.99 669.33 721.32 669.33 722.96C669.33 724.6 668 725.93 666.36 725.93ZM686.88 737.6C685.24 737.6 683.91 736.27 683.91 734.63C683.91 734.47 683.93 734.32 683.96 734.17C684.06 733.51 684.38 732.93 684.84 732.49C685.37 731.98 686.09 731.66 686.88 731.66C687.67 731.66 688.39 731.98 688.92 732.49C689.38 732.93 689.69 733.51 689.8 734.17C689.82 734.32 689.85 734.47 689.85 734.63C689.85 736.27 688.52 737.6 686.88 737.6ZM707.4 725.89C706.65 725.89 705.97 725.6 705.45 725.14C704.97 724.72 704.62 724.15 704.49 723.51C704.45 723.32 704.43 723.13 704.43 722.93C704.43 721.63 705.28 720.53 706.45 720.13C706.75 720.03 707.06 719.96 707.4 719.96C707.74 719.96 708.05 720.03 708.35 720.13C709.52 720.53 710.37 721.62 710.37 722.93C710.37 724.57 709.04 725.9 707.4 725.9" fill="#EC0000"/>
<path d="M707.4 694.39C705.96 694.39 704.67 695.03 703.78 696.04L691.5 688.95C691.64 688.49 691.74 688.01 691.74 687.51C691.74 684.83 689.56 682.65 686.88 682.65C684.2 682.65 682.02 684.83 682.02 687.51C682.02 688.02 682.12 688.49 682.26 688.95L669.98 696.04C669.09 695.04 667.81 694.39 666.36 694.39C663.68 694.39 661.5 696.57 661.5 699.25C661.5 701.61 663.19 703.57 665.41 704.01V707.58H667.3V704.01C669.53 703.57 671.21 701.6 671.21 699.25C671.21 698.69 671.1 698.17 670.92 697.67L683.15 690.61C684.04 691.68 685.37 692.37 686.86 692.37C688.35 692.37 689.68 691.68 690.57 690.61L702.81 697.67C702.64 698.17 702.52 698.69 702.52 699.25C702.52 701.61 704.21 703.57 706.43 704.01V707.58H708.32V704.01C710.55 703.57 712.23 701.6 712.23 699.25C712.23 696.57 710.05 694.39 707.37 694.39M667.31 702.05C667.01 702.15 666.7 702.22 666.36 702.22C666.02 702.22 665.71 702.15 665.41 702.05C664.24 701.65 663.39 700.56 663.39 699.25C663.39 697.61 664.72 696.28 666.36 696.28C667.1 696.28 667.77 696.56 668.29 697.01C668.77 697.43 669.13 697.99 669.26 698.63C669.3 698.83 669.32 699.03 669.32 699.24C669.32 700.54 668.47 701.64 667.3 702.04L667.31 702.05ZM689.8 687.97C689.7 688.63 689.38 689.21 688.92 689.65C688.39 690.16 687.67 690.48 686.88 690.48C686.09 690.48 685.37 690.16 684.84 689.65C684.38 689.21 684.07 688.63 683.96 687.97C683.94 687.82 683.91 687.67 683.91 687.51C683.91 685.87 685.24 684.54 686.88 684.54C688.52 684.54 689.85 685.87 689.85 687.51C689.85 687.67 689.83 687.82 689.8 687.97ZM708.34 702.05C708.04 702.15 707.73 702.22 707.39 702.22C707.05 702.22 706.74 702.15 706.44 702.05C705.27 701.65 704.42 700.56 704.42 699.25C704.42 699.04 704.44 698.83 704.49 698.64C704.63 697.99 704.98 697.43 705.46 697.02C705.98 696.57 706.65 696.29 707.39 696.29C709.03 696.29 710.36 697.62 710.36 699.26C710.36 700.56 709.51 701.66 708.34 702.06" fill="#EC0000"/>
<path d="M675.73 706.64H657.57V708.53H675.73V706.64Z" fill="#EC0000"/>
<path d="M675.73 710.12H657.57V712.01H675.73V710.12Z" fill="#EC0000"/>
<path d="M675.73 713.6H657.57V715.49H675.73V713.6Z" fill="#EC0000"/>
<path d="M715.87 706.64H697.71V708.53H715.87V706.64Z" fill="#EC0000"/>
<path d="M715.87 710.12H697.71V712.01H715.87V710.12Z" fill="#EC0000"/>
<path d="M715.87 713.6H697.71V715.49H715.87V713.6Z" fill="#EC0000"/>
</g>
<path d="M1224.77 637.13V432.16" stroke="#004DC8" stroke-width="3" stroke-miterlimit="10"/>
<path d="M1237.04 442.1L1234.85 444.14L1224.78 433.31L1214.7 444.14L1212.51 442.1L1224.78 428.9L1237.04 442.1Z" fill="#004DC8"/>
<text fill="black" style="white-space: pre" xml:space="preserve" font-family="Inter" font-size="16.5" font-weight="bold" letter-spacing="0em"><tspan x="176.043" y="378">User</tspan></text>
<text fill="black" style="white-space: pre" xml:space="preserve" font-family="Inter" font-size="16.5" font-weight="bold" letter-spacing="0em"><tspan x="178.043" y="638">User</tspan></text>
<text fill="black" style="white-space: pre" xml:space="preserve" font-family="Inter" font-size="32.05" font-weight="600" letter-spacing="0em"><tspan x="638.545" y="778.155">Falcon&#10;</tspan><tspan x="622.348" y="817.155">Next-Gen&#10;</tspan><tspan x="650.939" y="856.155">SIEM</tspan></text>
<text fill="black" style="white-space: pre" xml:space="preserve" font-family="Inter" font-size="32.05" font-weight="600" letter-spacing="0em"><tspan x="905" y="778.155">Falcon&#10;</tspan><tspan x="905" y="817.155">device&#10;</tspan><tspan x="905" y="856.155">posture</tspan></text>
<text fill="black" style="white-space: pre" xml:space="preserve" font-family="Inter" font-size="32.05" font-weight="600" letter-spacing="0em"><tspan x="1170.92" y="778.155">Fusion&#10;</tspan><tspan x="1177.79" y="817.155">SOAR</tspan></text>
<text fill="black" style="white-space: pre" xml:space="preserve" font-family="Inter" font-size="22" font-weight="500" letter-spacing="0em"><tspan x="862" y="1013.5">2. Threat detection: IOC&#10;</tspan><tspan x="829" y="1040.5">      [multiple endpoints]</tspan></text>
<text fill="black" style="white-space: pre" xml:space="preserve" font-family="Inter" font-size="28" font-weight="600" letter-spacing="0em"><tspan x="1183.02" y="263.182">Block:&#10;</tspan><tspan x="1153.09" y="297.182">WAF, SWG</tspan></text>
<text fill="black" style="white-space: pre" xml:space="preserve" font-family="Inter" font-size="20" letter-spacing="0em"><tspan x="1604" y="791.273">Logs [via Logpush]</tspan></text>
<text fill="black" style="white-space: pre" xml:space="preserve" font-family="Inter" font-size="20" letter-spacing="0em"><tspan x="1604" y="844.273">Automation [via API]</tspan></text>
<text fill="black" style="white-space: pre" xml:space="preserve" font-family="Inter" font-size="20" letter-spacing="0em"><tspan x="1604" y="898.273">Device posture &#10;</tspan><tspan x="1604" y="922.273">[service-to-service API]</tspan></text>
</g>
<defs>
<clipPath id="clip0_1_871">
<rect width="1920" height="1080" fill="white"/>
</clipPath>
</defs>
</svg>
